<svg width="826" height="233" viewBox="0 0 826 233" fill="none" xmlns="http://www.w3.org/2000/svg">
<g clip-path="url(#clip0_9_39)">
<path d="M563.277 118.871C563.284 118.841 563.277 118.811 563.277 118.773C563.239 119.066 563.224 119.194 563.277 118.871Z" fill="#878787"/>
<path d="M621.532 137.919V137.904C621.224 137.776 617.739 136.266 617.191 134.276H619.737C619.737 134.276 615.103 132.405 615.103 123.137H613.645C613.645 123.137 614.479 130.783 608.388 135.26C608.388 135.26 610.205 135.778 612.083 135.26C612.083 135.26 609.95 138.384 607.449 140.202C607.449 140.202 609.011 141.193 610.987 140.72C610.987 140.72 606.51 143.995 604.843 144.776C604.843 144.776 607.081 145.715 609.266 145.715C609.266 145.715 606.87 152.587 603.851 149.147C603.851 149.147 598.646 145.873 598.646 144.31L603.258 144.919C603.258 144.919 600.779 143.304 600.757 142.005H604.452C604.452 142.005 601.05 141.276 600.479 139.992L602.852 139.158C602.852 139.158 596.19 138.775 595.251 133.262C595.251 133.262 598.759 135.275 597.955 132.668H602.672C602.672 132.668 600.351 132.18 599.69 130.655H602.326C602.326 130.655 598.819 130.032 598.165 127.876H601.703C601.703 127.876 592.442 123.888 592.374 121.492H594.695C594.695 121.492 594.072 121.079 593.899 120.103H596.017C596.017 120.103 589.062 116.565 588.439 104.698H586.666C586.666 104.698 588.018 114.432 577.871 119.532C577.871 119.532 579.117 120.726 579.591 120.418C579.591 120.418 577.871 123.693 582.452 120.155C582.452 120.155 585.885 119.299 582.114 123.25C582.054 123.31 581.994 123.37 581.934 123.437C581.934 123.437 579.981 125.548 576.834 127.005C576.834 127.005 577.773 128.019 580.086 127.861C580.086 127.861 577.458 131.241 573.402 133.292C573.402 133.292 574.543 134.193 576.661 133.329C576.661 133.329 577.007 135.132 575.617 136.033C575.617 136.033 578.321 135.545 579.989 134.088V138.7C579.989 138.7 574.926 146.819 571.246 140.885C571.246 140.885 563.337 137.866 562.676 135.928C562.676 135.928 564.373 134.058 566.942 136.724C569.511 139.398 568.332 135.027 568.332 135.027C568.332 135.027 576.759 137.528 570.968 133.502C570.968 133.502 563.299 129.581 567.152 130.272L573.92 130.1C573.92 130.1 562.676 125.278 561.256 122.957L564.343 123.445C564.343 123.445 560.753 121.049 560.49 119.487V118.443L561.925 117.451C561.925 117.451 563.164 117.984 563.254 118.675C563.254 118.705 563.254 118.728 563.254 118.758C563.307 118.337 563.412 117.564 563.412 117.241C563.412 117.241 566.251 117.421 567.183 119.502C567.183 119.502 567.753 118.72 567.753 117.917H572.673C572.673 117.917 560.002 114.011 559.739 110.864C559.739 110.864 561.902 109.745 563.202 111.465C563.202 111.465 564.711 112.141 564.764 110.271H568.249C568.249 110.271 562.789 107.672 562.21 105.118C562.21 105.118 565.23 103.661 566.529 106.26C566.529 106.26 566.995 105.847 567.1 104.442H571.734C571.734 104.442 561.324 98.7714 561.121 96.0674C561.121 96.0674 563.93 97.5245 564.922 96.3829C564.922 96.3829 566.379 97.3218 568.302 97.4269C568.302 97.4269 567.363 96.488 567.363 95.5566H570.743C570.743 95.5566 560.701 95.0384 559.972 88.6391C559.972 88.6391 559.033 86.8214 558.199 85.6722L557.681 79.4832H556.277C556.277 79.4832 558.357 92.1842 548.675 91.711C548.675 91.711 550.448 93.4311 555.338 93.8442C555.338 93.8442 554.872 100.814 543.628 105.914C543.628 105.914 545.401 106.801 546.437 106.643L546.332 108.258C546.332 108.258 547.842 107.477 549.607 105.606C549.607 105.606 550.283 104.667 555.33 104.517C555.33 104.517 553.82 106.387 551.222 106.185C551.222 106.185 551.793 108.528 554.294 108.836C554.294 108.836 551.379 115.13 545.551 115.859C545.551 115.859 545.964 116.85 546.955 116.948C546.955 116.948 544.251 118.923 541.855 119.291C541.855 119.291 542.584 119.862 545.183 119.554C545.183 119.554 544.665 121.116 543.778 121.53C543.778 121.53 546.017 121.169 547.579 120.178L550.441 119.712C550.441 119.712 550.493 120.651 548.36 121.793C548.36 121.793 550.703 121.327 553.047 120.335C553.047 120.335 552.942 126.059 542.171 127.05C542.171 127.05 542.224 127.831 543.681 127.936C543.681 127.936 539.572 130.017 537.439 130.588C537.439 130.588 540.188 131.512 542.915 131.046C542.937 131.459 542.937 132.413 542.539 132.774C542.539 132.774 544.462 132.721 546.077 130.798C546.077 130.798 551.642 129.912 552.686 127.523C552.686 127.523 553.205 130.753 548.105 132.623C543.005 134.494 545.814 135.019 545.814 135.019C545.814 135.019 546.595 134.501 548.886 134.396C548.886 134.396 550.809 135.485 553.205 135.538C553.205 135.538 543.005 141.103 540.406 142.095C540.406 142.095 537.597 144.491 541.134 144.543C541.134 144.543 540.924 143.762 543.636 144.025C543.636 144.025 544.83 145.324 546.813 144.648C546.813 144.648 541.089 148.028 539.061 148.757C539.061 148.757 534.014 146.361 533.285 143.034H537.709C537.709 143.034 534.119 140.224 534.067 139.391H537.762C537.762 139.391 531.618 134.238 531.258 132.473C531.258 132.473 533.075 133.359 534.014 133.359C534.014 133.359 531.31 130.858 530.942 129.198H534.322C534.322 129.198 529.635 125.608 529.485 124.309H532.294C532.294 124.309 527.194 120.771 526.413 111.194H525.144C525.144 111.194 524.798 121.53 518.902 124.587C518.902 124.587 516.401 126.667 522.162 124.722C522.162 124.722 522.928 127.426 517.024 131.384C517.024 131.384 517.37 132.428 520.352 132.218L514.313 136.799C514.313 136.799 514.658 138.121 519.796 137.49C519.796 137.49 517.437 143.319 510.843 147.826C510.843 147.826 512.923 150.95 517.64 147.758L512.578 155.389C512.578 155.389 515.357 156.29 509.25 161.563C509.25 161.563 503.422 162.187 506.892 160.519C506.892 160.519 513.411 158.649 506.269 158.506C506.269 158.506 500.583 156.636 498.637 153.789C498.637 153.789 498.983 152.332 502.596 154.833C502.596 154.833 505.998 156.779 502.46 152.129C502.46 152.129 503.64 151.716 506.899 154.488C506.899 154.488 509.678 155.667 506.832 151.363L510.79 151.851C510.79 151.851 511.556 150.529 506.764 148.449C506.764 148.449 499.967 146.646 497.608 140.953C497.608 140.953 503.302 145.67 500.936 141.088C500.936 141.088 500.034 139.353 502.528 140.675C502.528 140.675 509.401 142.756 505.998 139.428L512.382 139.361C512.382 139.361 513.772 137.836 506.554 137.28C506.554 137.28 502.115 135.755 500.725 133.532L504.541 133.6C504.541 133.6 493.928 129.296 492.118 125.969C492.118 125.969 497.668 128.95 501.972 128.95C501.972 128.95 500.793 125.969 504.053 127.358C504.053 127.358 507.102 128.47 510.715 128.049C510.715 128.049 512.45 127.215 508.912 124.925L507.666 123.603C507.666 123.603 508.432 124.369 511.624 124.091C511.624 124.091 499.554 117.707 497.466 112.99C497.466 112.99 500.17 114.379 503.159 114.447C503.159 114.447 503.925 114.514 504.549 114.514C504.549 114.514 499.967 110.631 501.499 110.278C501.499 110.278 506.359 109.031 506.772 108.686C506.772 108.686 498.097 107.296 501.777 106.951L504.481 106.74C504.481 106.74 493.868 103.481 492.411 97.7198C492.411 97.7198 495.325 99.4549 497.548 99.5225C497.548 99.5225 495.468 97.2992 497.27 97.2992L504.068 97.6447C504.068 97.6447 498.029 94.5202 500.252 94.5202L502.753 94.6554C502.753 94.6554 492.831 90.6971 497.691 90.5619H502.475C502.475 90.5619 485.959 82.1646 488.25 81.6839H492.659C492.659 81.6839 488.948 79.7386 490.683 79.7761H494.086C494.086 79.7761 482.571 72.9411 482.016 59.0684H480.543C480.543 59.0684 480.806 72.9787 466.964 78.8598C466.964 78.8598 463.734 81.2032 470.036 79.6409C470.036 79.6409 464.312 85.9877 475.398 79.378C475.398 79.378 475.714 84.478 466.032 88.9545C466.032 88.9545 467.279 91.298 470.509 90.1488C470.509 90.1488 466.603 95.5116 459.843 98.4258C459.843 98.4258 463.073 99.6727 466.453 98.0127L463.907 100.98C463.907 100.98 467.602 100.874 471.035 98.6362C471.035 98.6362 471.072 100.424 469.615 102.159C469.615 102.159 469.96 103.27 471.35 102.993C471.35 102.993 461.083 113.403 459.903 115.063C459.903 115.063 455.742 118.743 451.506 119.78C451.506 119.78 453.376 121.304 456.568 120.403C456.568 120.403 454.345 122.206 454.345 123.385C454.345 123.385 458.439 120.748 460.384 120.748C460.384 120.748 459.55 123.317 459.693 124.286C459.693 124.286 465.454 120.884 466.355 121.785C466.355 121.785 457.755 138.85 451.018 134.689C451.018 134.689 441.787 127.959 443.665 127.681C443.665 127.681 448.314 129.138 449.35 128.86C449.35 128.86 444.701 124.834 446.226 124.767C446.226 124.767 450.041 124.977 451.085 124.076C451.085 124.076 444.078 121.65 446.646 121.65C446.646 121.65 449.283 120.748 449.628 119.847C449.628 119.847 438.873 119.502 437.28 112.216C437.28 112.216 444.633 116.798 441.028 112.006H449.425C449.425 112.006 445.122 109.925 445.264 109.369H448.111C448.111 109.369 441.516 105.554 442.35 104.51H447.21C447.21 104.51 434.787 100.003 433.472 96.6683H437.288C437.288 96.6683 435.62 95.3464 435.553 94.445H439.023C439.023 94.445 427.854 87.1594 427.02 73.3542H425.841C425.841 73.3542 427.02 86.7087 412.449 93.2658C412.449 93.2658 407.972 95.0384 415.363 93.9944C415.363 93.9944 410.887 100.657 420.568 94.3098C420.568 94.3098 419.84 100.349 411.931 103.263C404.022 106.177 416.302 104.097 416.302 104.097C416.302 104.097 413.906 108.986 406.418 111.698C406.418 111.698 400.379 114.507 408.919 113.155C408.919 113.155 412.667 111.803 410.376 114.612C410.376 114.612 406.215 119.396 415.16 113.989C415.16 113.989 418.593 118.255 412.036 122.521C412.036 122.521 404.127 129.183 400.484 133.134C400.484 133.134 396.428 132.511 396.428 130.22C396.428 130.22 403.503 129.491 404.442 127.306C404.442 127.306 396.218 124.91 395.805 123.452L400.905 123.347C400.905 123.347 394.971 119.704 394.761 118.66H398.614C398.614 118.66 395.384 116.542 395.384 115.153H397.292C397.292 115.153 395.001 113.733 394.828 112.832H396.421C396.421 112.832 392.778 111.202 392.567 109.505H395.827C395.827 109.505 389.616 106.831 389.653 100.033H388.331C388.331 100.033 389.195 110.233 382.503 112.629C382.503 112.629 383.472 113.493 384.238 113.463C384.238 113.463 384.065 116.099 378.237 116.655C378.237 116.655 380.182 118.15 382.368 118.15C382.368 118.15 381.601 119.329 378.725 120.268C378.725 120.268 380.077 121.687 381.429 121.59C381.429 121.59 378.026 125.826 373.309 123.009C373.309 123.009 373.414 125.06 376.847 126.757C376.847 126.757 377.26 127.936 374.038 127.351C374.038 127.351 375.18 129.153 377.087 129.574C377.087 129.574 376.118 130.963 374.308 131.482C374.308 131.482 375.66 132.623 380.587 132.383C380.587 132.383 376.839 138.249 371.154 137.273C371.154 137.273 368.645 136.266 370.47 136.056L373.85 135.793C373.85 135.793 365.678 132.931 365.137 130.145H367.556C367.556 130.145 366.151 129.416 366.024 128.582H368.157C368.157 128.582 360.713 123.407 360.871 113.936H359.677C359.677 113.936 359.316 124.083 350.776 128.139C350.776 128.139 351.663 129.131 352.699 128.815C352.699 128.815 352.346 129.101 352.098 130.287C352.098 130.287 354.517 128.567 355.951 128.845C355.951 128.845 355.666 134.336 349.575 135.012C349.575 135.012 342.657 132.668 342.342 130.122H347.907C347.907 130.122 342.342 125.961 342.131 124.399L347.442 123.407C347.442 123.407 338.646 119.659 337.76 116.587L346.608 115.393C346.608 115.393 339.217 110.969 338.804 108.107H344.009C344.009 108.107 337.662 101.813 337.136 99.3647H341.771C341.771 99.3647 338.646 97.4419 338.286 95.5642H341.876C341.876 95.5642 334.906 89.6305 334.485 88.1734H337.715C337.715 88.1734 334.282 85.4694 333.967 84.0123H337.873C337.873 84.0123 331.886 81.2558 331.729 79.1752H335.582C335.582 79.1752 329.963 74.6987 329.701 64.7617H328.243C328.243 64.7617 329.287 74.8564 321.116 80.3244C321.116 80.3244 324.135 81.2107 325.953 80.0616C325.953 80.0616 322.31 85.1089 319.396 87.2946C319.396 87.2946 321.686 88.2335 324.082 87.6551C324.082 87.6551 318.569 92.6499 316.639 93.2733C316.639 93.2733 320.695 94.0545 322.678 93.5888C322.678 93.5888 317.578 103.631 313.206 105.036C313.206 105.036 317.06 106.44 320.026 105.036C320.026 105.036 317.06 110.811 314.461 112.216C314.461 112.216 314.671 113.463 316.023 113.05C316.023 113.05 314.934 118.668 306.965 122.416C306.965 122.416 309.098 123.82 313.935 123.558C313.935 123.558 311.179 130.325 306.965 132.766C306.965 132.766 302.751 132.713 302.075 130.317H307.07C307.07 130.317 296.607 127.245 295.984 124.279C295.984 124.279 298.275 126.254 300.821 126.359C300.821 126.359 298.17 124.173 298.064 123.129C298.064 123.129 299.784 124.481 301.392 124.587C301.392 124.587 300.558 123.287 300.558 122.559H304.561C304.561 122.559 300.558 121.725 300.085 119.96H302.271C302.271 119.96 296.127 117.827 295.556 115.018L297.328 114.342C297.328 114.342 295.661 113.718 295.608 113.042H298.312C298.312 113.042 296.074 111.638 295.766 110.233H299.078C299.078 110.233 296.269 109.767 296.059 108.513H300.325C300.325 108.513 295.954 106.741 295.436 105.081H297.832C297.832 105.081 296.427 104.532 296.194 103.834H297.809C297.809 103.834 293.1 101.385 292.784 94.2573H291.695C291.695 94.2573 292.108 102.429 286.858 103.158C286.858 103.158 286.963 103.939 288.368 103.991C288.368 103.991 286.963 105.186 285.138 105.501C285.138 105.501 285.709 106.019 286.911 106.072C286.911 106.072 287.016 107.116 285.191 107.89C285.191 107.89 286.648 108.513 287.842 108.153C287.842 108.153 291.274 110.181 289.246 112.058C289.246 112.058 287.219 113.929 286.332 114.454C286.332 114.454 289.262 114.785 287.526 116.032C287.526 116.032 284.747 117.767 283.989 117.872C283.989 117.872 283.989 119.051 285.619 119.013C285.619 119.013 286.069 120.681 282.915 121.995C282.915 121.995 284.582 122.656 286.347 121.717C286.347 121.717 284.124 124.872 282.427 125.848C282.427 125.848 285.686 125.954 287.181 124.496C287.181 124.496 290.689 124.737 288.773 126.089C288.773 126.089 287.834 127.2 286.828 127.411C286.828 127.411 287.624 128.177 288.841 127.726C288.841 127.726 287.451 130.603 286.062 131.091C286.062 131.091 287.173 131.437 288.112 131.437C288.112 131.437 287.001 133.382 285.859 134.073C285.859 134.073 286.625 134.974 288.841 134.035C288.841 134.035 289.081 137.889 282.043 138.024C282.043 138.024 282.532 139.413 283.846 139.271C283.846 139.271 283.395 143.679 278.987 139.826C278.987 139.826 273.368 134.035 273.263 132.503H278.603C278.603 132.503 273.188 129.349 272.88 127.854H275.832C275.832 127.854 270.717 123.295 270.664 121.785C270.664 121.785 273.939 122.566 274.412 122.619C274.412 122.619 268.899 117.519 268.899 109.715H267.6C267.6 109.715 267.705 116.587 263.176 120.959C263.176 120.959 264.01 121.53 265.204 121.424C265.204 121.424 262.553 123.82 260.938 124.602C260.938 124.602 262.237 125.435 263.747 125.12C263.747 125.12 263.852 126.84 261.561 128.297L263.799 128.455C263.799 128.455 262.447 131.579 258.662 133.172C258.662 133.172 259.909 134.178 260.983 134.313C260.983 134.313 259.315 136.184 258.279 136.844C258.279 136.844 259.526 137.611 261.433 137.19C261.433 137.19 261.088 140.345 257.377 142.185C257.377 142.185 253.352 142.425 252.833 139.098H257.1C257.1 139.098 252.518 136.319 252.488 134.554H256.514C256.514 134.554 249.919 130.317 249.574 128.658H255.612C255.612 128.658 250.618 124.151 250.34 122.273H254.223C254.223 122.273 248.95 117.414 248.672 115.055H252.21C252.21 115.055 250.34 114.086 249.851 112.141H252.075C252.075 112.141 246.179 107.77 246.314 106.38C246.314 106.38 248.394 107.627 249.16 107.146C249.16 107.146 245.901 103.886 245.833 103.12H249.513C249.513 103.12 245.352 100.762 245.142 99.5826H247.568C247.568 99.5826 242.784 94.3099 242.784 88.8268H241.462C241.462 88.8268 242.784 95.767 236.602 99.9957C236.602 99.9957 237.571 101.242 239.449 100.551C239.449 100.551 235.843 104.99 235.01 105.689C235.01 105.689 236.257 105.967 237.579 105.621C237.579 105.621 234.454 109.227 232.719 110.203C232.719 110.203 234.522 111.037 236.88 110.691C236.88 110.691 234.454 117.421 229.872 119.569C229.872 119.569 233.831 120.26 235.355 119.156C235.355 119.156 231.675 124.985 230.916 125.608C230.916 125.608 231.051 125.743 231.818 125.743C231.818 125.743 231.262 129.904 225.433 132.886C225.433 132.886 228.212 134.689 230.293 133.998C230.293 133.998 228.971 137.678 227.379 138.647C227.379 138.647 225.989 138.857 225.576 137.325C225.576 137.325 225.08 137.13 224.322 136.762V180.205H621.539V145.069C620.908 144.626 620.142 143.942 619.226 142.861L618.813 141.141L621.539 141.494V141.456C621.066 141.178 618.543 139.624 618.445 138.542V137.919H621.532Z" fill="#878787"/>
<path d="M340.344 110.346C340.351 110.316 340.344 110.286 340.344 110.248C340.306 110.541 340.291 110.661 340.344 110.346Z" fill="#878787"/>
<path d="M398.599 129.394V129.379C398.291 129.251 394.806 127.741 394.257 125.751H396.804C396.804 125.751 392.169 123.881 392.169 114.612H390.712C390.712 114.612 391.546 122.258 385.455 126.735C385.455 126.735 387.272 127.253 389.15 126.735C389.15 126.735 387.017 129.859 384.516 131.677C384.516 131.677 386.078 132.668 388.053 132.195C388.053 132.195 383.577 135.47 381.909 136.251C381.909 136.251 384.148 137.19 386.333 137.19C386.333 137.19 383.937 144.062 380.918 140.622C380.918 140.622 375.713 137.348 375.713 135.785L380.325 136.394C380.325 136.394 377.846 134.779 377.823 133.48H381.519C381.519 133.48 378.116 132.751 377.545 131.467L379.919 130.633C379.919 130.633 373.257 130.25 372.318 124.737C372.318 124.737 375.825 126.75 375.022 124.143H379.739C379.739 124.143 377.418 123.655 376.757 122.13H379.393C379.393 122.13 375.886 121.507 375.232 119.351H378.77C378.77 119.351 369.509 115.363 369.441 112.967H371.762C371.762 112.967 371.139 112.554 370.966 111.578H373.084C373.084 111.578 366.129 108.04 365.505 96.1725H363.733C363.733 96.1725 365.085 105.907 354.937 111.007C354.937 111.007 356.184 112.201 356.657 111.893C356.657 111.893 354.937 115.168 359.519 111.63C359.519 111.63 362.952 110.774 359.181 114.725C359.121 114.785 359.061 114.845 359.001 114.912C359.001 114.912 357.048 117.023 353.901 118.48C353.901 118.48 354.84 119.494 357.153 119.336C357.153 119.336 354.524 122.716 350.468 124.767C350.468 124.767 351.61 125.668 353.728 124.804C353.728 124.804 354.074 126.607 352.684 127.508C352.684 127.508 355.388 127.02 357.056 125.563V130.175C357.056 130.175 351.993 138.294 348.313 132.36C348.313 132.36 340.404 129.341 339.743 127.403C339.743 127.403 341.44 125.533 344.009 128.199C346.578 130.873 345.399 126.502 345.399 126.502C345.399 126.502 353.826 129.003 348.035 124.977C348.035 124.977 340.366 121.056 344.219 121.747L350.987 121.575C350.987 121.575 339.743 116.753 338.323 114.432L341.41 114.92C341.41 114.92 337.82 112.524 337.557 110.962V109.918L338.992 108.926C338.992 108.926 340.231 109.459 340.321 110.15C340.321 110.181 340.321 110.203 340.321 110.233C340.374 109.812 340.479 109.039 340.479 108.716C340.479 108.716 343.318 108.896 344.249 110.977C344.249 110.977 344.82 110.196 344.82 109.392H349.74C349.74 109.392 337.069 105.486 336.806 102.339C336.806 102.339 338.969 101.22 340.269 102.94C340.269 102.94 341.778 103.616 341.831 101.746H345.316C345.316 101.746 339.855 99.1469 339.277 96.5932C339.277 96.5932 342.296 95.136 343.596 97.7348C343.596 97.7348 344.062 97.3217 344.167 95.9172H348.801C348.801 95.9172 338.391 90.2464 338.188 87.5424C338.188 87.5424 340.997 88.9996 341.989 87.8579C341.989 87.8579 343.446 88.7968 345.368 88.9019C345.368 88.9019 344.43 87.9631 344.43 87.0317H347.81C347.81 87.0317 337.767 86.5134 337.039 80.1141C337.039 80.1141 336.1 78.2965 335.266 77.1473L334.748 70.9582H333.343C333.343 70.9582 335.424 83.6593 325.742 83.1861C325.742 83.1861 327.515 84.9061 332.405 85.3192C332.405 85.3192 331.939 92.2894 320.695 97.3893C320.695 97.3893 322.468 98.2756 323.504 98.1179L323.399 99.7328C323.399 99.7328 324.909 98.9516 326.674 97.0814C326.674 97.0814 327.35 96.1425 332.397 95.9923C332.397 95.9923 330.887 97.8625 328.289 97.6597C328.289 97.6597 328.859 100.003 331.361 100.311C331.361 100.311 328.446 106.605 322.618 107.334C322.618 107.334 323.031 108.325 324.022 108.423C324.022 108.423 321.318 110.398 318.922 110.766C318.922 110.766 319.651 111.337 322.25 111.029C322.25 111.029 321.731 112.592 320.845 113.005C320.845 113.005 323.083 112.644 324.646 111.653L327.507 111.187C327.507 111.187 327.56 112.126 325.427 113.268C325.427 113.268 327.77 112.802 330.114 111.81C330.114 111.81 330.009 117.534 319.238 118.525C319.238 118.525 319.29 119.306 320.748 119.411C320.748 119.411 316.639 121.492 314.506 122.063C314.506 122.063 317.255 122.987 319.981 122.521C320.004 122.934 320.004 123.888 319.606 124.249C319.606 124.249 321.529 124.196 323.144 122.273C323.144 122.273 328.709 121.387 329.753 118.998C329.753 118.998 330.271 122.228 325.171 124.098C320.072 125.969 322.881 126.494 322.881 126.494C322.881 126.494 323.662 125.976 325.953 125.871C325.953 125.871 327.875 126.96 330.271 127.013C330.271 127.013 320.072 132.578 317.473 133.57C317.473 133.57 314.664 135.966 318.201 136.018C318.201 136.018 317.991 135.237 320.702 135.5C320.702 135.5 321.897 136.799 323.88 136.123C323.88 136.123 318.156 139.503 316.128 140.232C316.128 140.232 311.081 137.836 310.352 134.509H314.776C314.776 134.509 311.186 131.699 311.133 130.866H314.829C314.829 130.866 308.685 125.713 308.324 123.948C308.324 123.948 310.142 124.834 311.081 124.834C311.081 124.834 308.377 122.333 308.009 120.673H311.389C311.389 120.673 306.702 117.083 306.552 115.784H309.361C309.361 115.784 304.261 112.246 303.48 102.67H302.21C302.21 102.67 301.865 113.005 295.969 116.062C295.969 116.062 293.468 118.142 299.229 116.197C299.229 116.197 299.995 118.901 294.091 122.859C294.091 122.859 294.437 123.903 297.418 123.693L291.38 128.274C291.38 128.274 291.725 129.596 296.863 128.965C296.863 128.965 294.504 134.794 287.91 139.301C287.91 139.301 289.99 142.425 294.707 139.233L289.645 146.864C289.645 146.864 292.424 147.765 286.317 153.038C286.317 153.038 280.489 153.662 283.959 151.994C283.959 151.994 290.478 150.124 283.335 149.981C283.335 149.981 277.65 148.111 275.704 145.264C275.704 145.264 276.05 143.807 279.662 146.308C279.662 146.308 283.065 148.254 279.527 143.604C279.527 143.604 280.707 143.191 283.966 145.963C283.966 145.963 286.745 147.142 283.899 142.838L287.857 143.326C287.857 143.326 288.623 142.004 283.831 139.924C283.831 139.924 277.034 138.121 274.675 132.428C274.675 132.428 280.361 137.145 278.003 132.563C278.003 132.563 277.101 130.828 279.595 132.15C279.595 132.15 286.467 134.231 283.065 130.903L289.449 130.836C289.449 130.836 290.839 129.311 283.621 128.755C283.621 128.755 279.182 127.23 277.792 125.007L281.608 125.075C281.608 125.075 270.995 120.771 269.185 117.444C269.185 117.444 274.735 120.426 279.039 120.426C279.039 120.426 277.86 117.444 281.12 118.833C281.12 118.833 284.169 119.945 287.782 119.524C287.782 119.524 289.517 118.69 285.979 116.4L284.732 115.078C284.732 115.078 285.499 115.844 288.691 115.566C288.691 115.566 276.621 109.182 274.533 104.465C274.533 104.465 277.236 105.854 280.218 105.922C280.218 105.922 280.984 105.989 281.608 105.989C281.608 105.989 277.026 102.106 278.558 101.753C278.558 101.753 283.418 100.506 283.831 100.161C283.831 100.161 275.156 98.7713 278.836 98.4258L281.54 98.2156C281.54 98.2156 270.927 94.9558 269.47 89.1949C269.47 89.1949 272.384 90.9299 274.608 90.9975C274.608 90.9975 272.527 88.7743 274.33 88.7743L281.127 89.1198C281.127 89.1198 275.088 85.9952 277.312 85.9952L279.813 86.1304C279.813 86.1304 269.891 82.1721 274.75 82.0369H279.55C279.55 82.0369 263.033 73.6397 265.324 73.159H269.733C269.733 73.159 266.023 71.2136 267.758 71.2511H271.16C271.16 71.2511 259.646 64.4162 259.09 50.5434H257.618C257.618 50.5434 257.881 64.4537 244.038 70.3348C244.038 70.3348 240.808 72.6782 247.11 71.116C247.11 71.116 241.387 77.4627 252.473 70.8531C252.473 70.8531 252.788 75.953 243.107 80.4296C243.107 80.4296 244.353 82.773 247.583 81.6238C247.583 81.6238 243.677 86.9866 236.918 89.9009C236.918 89.9009 240.147 91.1477 243.527 89.4878L240.981 92.4546C240.981 92.4546 244.676 92.3495 248.109 90.1112C248.109 90.1112 248.146 91.8988 246.689 93.6338C246.689 93.6338 247.035 94.7455 248.424 94.4676C248.424 94.4676 238.157 104.878 236.978 106.538C236.978 106.538 232.817 110.218 228.58 111.255C228.58 111.255 230.451 112.779 233.643 111.878C233.643 111.878 231.42 113.681 231.42 114.86C231.42 114.86 235.513 112.223 237.458 112.223C237.458 112.223 236.625 114.792 236.767 115.761C236.767 115.761 242.528 112.359 243.43 113.26C243.43 113.26 234.83 130.325 228.092 126.164C228.092 126.164 218.861 119.434 220.739 119.156C220.739 119.156 225.388 120.613 226.425 120.335C226.425 120.335 221.775 116.309 223.3 116.242C223.3 116.242 227.116 116.452 228.16 115.551C228.16 115.551 221.152 113.125 223.721 113.125C223.721 113.125 226.357 112.224 226.703 111.322C226.703 111.322 215.947 110.977 214.355 103.691C214.355 103.691 221.708 108.273 218.103 103.481H226.5C226.5 103.481 222.196 101.4 222.339 100.844H225.185C225.185 100.844 218.591 97.0288 219.425 95.9848H224.284C224.284 95.9848 211.861 91.4782 210.547 88.1433H214.362C214.362 88.1433 212.695 86.8214 212.627 85.9201H216.097C216.097 85.9201 204.928 78.6344 204.095 64.8293H202.915C202.915 64.8293 204.095 78.1838 189.523 84.7409C189.523 84.7409 185.047 86.5134 192.438 85.4694C192.438 85.4694 187.961 92.1317 197.643 85.7849C197.643 85.7849 196.914 91.8237 189.005 94.738C181.096 97.6522 193.376 95.5717 193.376 95.5717C193.376 95.5717 190.98 100.461 183.492 103.173C183.492 103.173 177.453 105.982 185.993 104.63C185.993 104.63 189.741 103.278 187.45 106.087C187.45 106.087 183.289 110.872 192.235 105.464C192.235 105.464 195.667 109.73 189.11 113.996C189.11 113.996 181.201 120.658 177.558 124.609C177.558 124.609 173.502 123.986 173.502 121.695C173.502 121.695 180.578 120.966 181.517 118.781C181.517 118.781 173.292 116.385 172.879 114.927L177.979 114.822C177.979 114.822 172.045 111.179 171.835 110.135H175.688C175.688 110.135 172.458 108.017 172.458 106.628H174.366C174.366 106.628 172.075 105.208 171.903 104.307H173.495C173.495 104.307 169.852 102.677 169.642 100.98H172.902C172.902 100.98 166.69 98.3057 166.728 91.5083H165.406C165.406 91.5083 166.269 101.708 159.577 104.104C159.577 104.104 160.546 104.968 161.312 104.938C161.312 104.938 161.139 107.574 155.311 108.13C155.311 108.13 157.256 109.625 159.442 109.625C159.442 109.625 158.676 110.804 155.799 111.743C155.799 111.743 157.151 113.162 158.503 113.065C158.503 113.065 155.101 117.301 150.384 114.484C150.384 114.484 150.489 116.535 153.921 118.232C153.921 118.232 154.334 119.412 151.112 118.826C151.112 118.826 152.254 120.628 154.162 121.049C154.162 121.049 153.193 122.438 151.383 122.957C151.383 122.957 152.735 124.098 157.662 123.858C157.662 123.858 153.914 129.724 148.228 128.748C148.228 128.748 145.719 127.741 147.545 127.531L150.924 127.268C150.924 127.268 142.752 124.406 142.212 121.62H144.63C144.63 121.62 143.226 120.891 143.098 120.057H145.231C145.231 120.057 137.788 114.882 137.945 105.411H136.751C136.751 105.411 136.391 115.558 127.851 119.614C127.851 119.614 128.737 120.606 129.774 120.29C129.774 120.29 129.421 120.576 129.173 121.762C129.173 121.762 131.591 120.042 133.026 120.32C133.026 120.32 132.74 125.811 126.649 126.487C126.649 126.487 119.731 124.143 119.416 121.597H124.982C124.982 121.597 119.416 117.436 119.206 115.874L124.516 114.882C124.516 114.882 115.72 111.134 114.834 108.062L123.682 106.868C123.682 106.868 116.291 102.444 115.878 99.5826H121.083C121.083 99.5826 114.737 93.2883 114.211 90.8398H118.815C118.815 90.8398 115.69 88.917 115.33 87.0392H118.92C118.92 87.0392 111.95 81.1055 111.529 79.6484H114.759C114.759 79.6484 111.327 76.9445 111.011 75.4873H114.917C114.917 75.4873 108.931 72.7308 108.773 70.6503H112.626C112.626 70.6503 107.008 66.1737 106.745 56.2367H105.288C105.288 56.2367 106.332 66.3315 98.1599 71.7995C98.1599 71.7995 101.179 72.6857 102.997 71.5366C102.997 71.5366 99.3541 76.5839 96.4398 78.7696C96.4398 78.7696 98.7307 79.7085 101.127 79.1301C101.127 79.1301 95.6136 84.125 93.6833 84.7484C93.6833 84.7484 97.7392 85.5295 99.7221 85.0638C99.7221 85.0638 94.6222 95.106 90.2508 96.5105C90.2508 96.5105 94.1039 97.9151 97.0708 96.5105C97.0708 96.5105 94.1039 102.286 91.5051 103.691C91.5051 103.691 91.7154 104.938 93.0674 104.525C93.0674 104.525 91.9783 110.143 84.0092 113.891C84.0092 113.891 86.1423 115.296 90.9794 115.033C90.9794 115.033 88.2228 121.8 84.0092 124.241C84.0092 124.241 79.7955 124.189 79.1195 121.793H84.1143C84.1143 121.793 73.6515 118.72 73.0281 115.754C73.0281 115.754 75.319 117.729 77.8652 117.834C77.8652 117.834 75.2138 115.649 75.1087 114.604C75.1087 114.604 76.8287 115.956 78.436 116.062C78.436 116.062 77.6023 114.762 77.6023 114.034H81.6057C81.6057 114.034 77.6023 113.2 77.1291 111.435H79.3148C79.3148 111.435 73.1709 109.302 72.6 106.493L74.3726 105.817C74.3726 105.817 72.7052 105.193 72.6526 104.517H75.3565C75.3565 104.517 73.1183 103.113 72.8103 101.708H76.1377C76.1377 101.708 73.3286 101.242 73.1183 99.9881H77.3845C77.3845 99.9881 73.0131 98.2155 72.4949 96.5556H74.8909C74.8909 96.5556 73.4863 96.0073 73.2535 95.3088H74.8683C74.8683 95.3088 70.159 92.8602 69.8435 85.7323H68.7544C68.7544 85.7323 69.1675 93.9042 63.9173 94.6328C63.9173 94.6328 64.0225 95.4139 65.427 95.4665C65.427 95.4665 64.0225 96.6608 62.1973 96.9762C62.1973 96.9762 62.7682 97.4945 63.9699 97.5471C63.9699 97.5471 64.0751 98.5911 62.2499 99.3647C62.2499 99.3647 63.707 99.9881 64.9013 99.6276C64.9013 99.6276 68.3338 101.656 66.3058 103.533C66.3058 103.533 64.2779 105.404 63.3916 105.929C63.3916 105.929 66.3208 106.26 64.5858 107.507C64.5858 107.507 61.8067 109.242 61.0481 109.347C61.0481 109.347 61.0481 110.526 62.678 110.488C62.678 110.488 63.1287 112.156 59.9741 113.47C59.9741 113.47 61.6415 114.131 63.4066 113.192C63.4066 113.192 61.1833 116.347 59.4859 117.323C59.4859 117.323 62.7456 117.429 64.2403 115.972C64.2403 115.972 67.7479 116.212 65.8326 117.564C65.8326 117.564 64.8938 118.675 63.8873 118.886C63.8873 118.886 64.6835 119.652 65.9002 119.201C65.9002 119.201 64.5107 122.078 63.1212 122.566C63.1212 122.566 64.2328 122.912 65.1717 122.912C65.1717 122.912 64.06 124.857 62.9184 125.548C62.9184 125.548 63.6845 126.449 65.9002 125.51C65.9002 125.51 66.1406 129.364 59.1028 129.499C59.1028 129.499 59.591 130.888 60.9054 130.746C60.9054 130.746 60.4548 135.155 56.0458 131.301C56.0458 131.301 50.4276 125.51 50.3225 123.978H55.6628C55.6628 123.978 50.2474 120.824 49.9394 119.329H52.8912C52.8912 119.329 47.7763 114.77 47.7237 113.26C47.7237 113.26 50.9985 114.041 51.4716 114.094C51.4716 114.094 45.9586 108.994 45.9586 101.19H44.6592C44.6592 101.19 44.7644 108.062 40.2352 112.434C40.2352 112.434 41.069 113.005 42.2632 112.899C42.2632 112.899 39.6118 115.295 37.997 116.077C37.997 116.077 39.2964 116.91 40.8061 116.595C40.8061 116.595 40.9112 118.315 38.6204 119.772L40.8586 119.93C40.8586 119.93 39.5067 123.054 35.7211 124.647C35.7211 124.647 36.968 125.653 38.042 125.788C38.042 125.788 36.3746 127.659 35.3381 128.32C35.3381 128.32 36.5849 129.086 38.4927 128.665C38.4927 128.665 38.1472 131.82 34.4368 133.66C34.4368 133.66 30.4109 133.9 29.8926 130.573H34.1589C34.1589 130.573 29.5772 127.794 29.5471 126.029H33.573C33.573 126.029 26.9784 121.792 26.6329 120.133H32.6717C32.6717 120.133 27.6769 115.626 27.399 113.748H31.2822C31.2822 113.748 26.0095 108.889 25.7316 106.53H29.2692C29.2692 106.53 27.399 105.561 26.9108 103.616H29.134C29.134 103.616 23.2379 99.2446 23.3731 97.855C23.3731 97.855 25.4536 99.1018 26.2198 98.6211C26.2198 98.6211 22.96 95.3614 22.8924 94.5953H26.5728C26.5728 94.5953 22.4117 92.2368 22.2014 91.0576H24.6274C24.6274 91.0576 19.843 85.7849 19.843 80.3019H18.521C18.521 80.3019 19.8429 87.242 13.6614 91.4707C13.6614 91.4707 14.6303 92.7175 16.5081 92.0265C16.5081 92.0265 12.9028 96.4655 12.0691 97.164C12.0691 97.164 13.3159 97.4419 14.6378 97.0964C14.6378 97.0964 11.5133 100.702 9.77825 101.678C9.77825 101.678 11.5809 102.512 13.9393 102.166C13.9393 102.166 11.5133 108.896 6.93159 111.044C6.93159 111.044 10.8899 111.735 12.4146 110.631C12.4146 110.631 8.73422 116.46 7.97561 117.083C7.97561 117.083 8.11081 117.218 8.87693 117.218C8.87693 117.218 8.32112 121.379 2.4926 124.361C2.4926 124.361 5.27166 126.164 7.3522 125.473C7.3522 125.473 6.03027 129.153 4.43795 130.122C4.43795 130.122 3.04842 130.332 2.63531 128.8C2.63531 128.8 2.13959 128.605 1.38098 128.237V171.68H398.599V136.544C397.968 136.101 397.202 135.417 396.285 134.336L395.872 132.616L398.599 132.969V132.931C398.126 132.653 395.602 131.099 395.504 130.017V129.394H398.599Z" fill="#878787"/>
<mask id="mask0_9_39" style="mask-type:luminance" maskUnits="userSpaceOnUse" x="5" y="23" width="195" height="181">
<path d="M199.528 23.0608H5.21909V203.354H199.528V23.0608Z" fill="white"/>
</mask>
<g mask="url(#mask0_9_39)">
<path d="M93.428 93.1306C93.4355 93.078 93.428 93.0255 93.428 92.9729C93.3679 93.4536 93.3378 93.6564 93.428 93.1306Z" fill="#515151"/>
<path d="M189.816 124.647V124.624C189.305 124.406 183.537 121.913 182.636 118.615H186.857C186.857 118.615 179.196 115.513 179.196 100.191H176.785C176.785 100.191 178.159 112.847 168.087 120.253C168.087 120.253 171.099 121.116 174.201 120.253C174.201 120.253 170.671 125.42 166.54 128.432C166.54 128.432 169.123 130.07 172.398 129.296C172.398 129.296 164.992 134.719 162.236 136.011C162.236 136.011 165.939 137.558 169.552 137.558C169.552 137.558 165.593 148.922 160.599 143.244C160.599 143.244 151.991 137.821 151.991 135.237L159.63 136.244C159.63 136.244 155.529 133.577 155.499 131.422H161.613C161.613 131.422 155.987 130.212 155.04 128.094L158.976 126.72C158.976 126.72 147.958 126.089 146.403 116.963C146.403 116.963 152.201 120.29 150.879 115.986H158.683C158.683 115.986 154.838 115.183 153.749 112.659H158.112C158.112 112.659 152.314 111.623 151.225 108.07H157.083C157.083 108.07 141.754 101.468 141.641 97.5095H145.486C145.486 97.5095 144.45 96.8185 144.165 95.2112H147.665C147.665 95.2112 136.158 89.3526 135.121 69.7189H132.192C132.192 69.7189 134.43 85.8224 117.636 94.2573C117.636 94.2573 119.701 96.2402 120.475 95.7219C120.475 95.7219 117.636 101.145 125.214 95.2938C125.214 95.2938 130.893 93.8742 124.651 100.409C124.553 100.506 124.456 100.612 124.351 100.717C124.351 100.717 121.121 104.202 115.908 106.613C115.908 106.613 117.456 108.295 121.294 108.032C121.294 108.032 116.945 113.628 110.23 117.015C110.23 117.015 112.123 118.51 115.623 117.076C115.623 117.076 116.194 120.057 113.903 121.552C113.903 121.552 118.379 120.748 121.136 118.337V125.976C121.136 125.976 112.754 139.406 106.67 129.596C106.67 129.596 93.5781 124.602 92.4891 121.387C92.4891 121.387 95.3056 118.285 99.5493 122.709C103.801 127.133 101.848 119.892 101.848 119.892C101.848 119.892 115.796 124.023 106.212 117.369C106.212 117.369 93.5256 110.879 99.8949 112.028L111.086 111.743C111.086 111.743 92.489 103.766 90.1306 99.9206L95.2381 100.724C95.2381 100.724 89.2969 96.7659 88.8688 94.1822V92.4621L91.2347 90.8247C91.2347 90.8247 93.2852 91.7035 93.4354 92.8527C93.443 92.8978 93.4354 92.9428 93.4354 92.9954C93.5256 92.2969 93.6908 91.02 93.6908 90.4867C93.6908 90.4867 98.3851 90.7872 99.9324 94.2348C99.9324 94.2348 100.879 92.9429 100.879 91.6059H109.013C109.013 91.6059 88.0426 85.1465 87.6144 79.9413C87.6144 79.9413 91.1897 78.0937 93.3378 80.9328C93.3378 80.9328 95.8314 82.0519 95.9216 78.9499H101.69C101.69 78.9499 92.6468 74.6461 91.7004 70.425C91.7004 70.425 96.6952 68.014 98.8508 72.3177C98.8508 72.3177 99.6245 71.6267 99.7972 69.3058H107.458C107.458 69.3058 90.2357 59.9171 89.8902 55.4406C89.8902 55.4406 94.5395 57.8516 96.1769 55.9588C96.1769 55.9588 98.588 57.5061 101.773 57.6788C101.773 57.6788 100.225 56.1316 100.225 54.5768H105.821C105.821 54.5768 89.1992 53.713 87.9975 43.1226C87.9975 43.1226 86.4502 40.1107 85.0682 38.2179L84.2044 27.9729H81.876C81.876 27.9729 85.3236 48.9811 69.3027 48.2075C69.3027 48.2075 72.232 51.0466 80.3213 51.7377C80.3213 51.7377 79.5477 63.2745 60.943 71.7168C60.943 71.7168 63.8723 73.1815 65.5923 72.9261L65.4195 75.5925C65.4195 75.5925 67.9131 74.3006 70.8424 71.1986C70.8424 71.1986 71.9616 69.6513 80.3138 69.3884C80.3138 69.3884 77.8201 72.4905 73.5088 72.145C73.5088 72.145 74.4552 76.0206 78.5862 76.5389C78.5862 76.5389 73.7642 86.9566 64.1201 88.1659C64.1201 88.1659 64.8111 89.8032 66.4485 89.976C66.4485 89.976 61.972 93.2508 58.0062 93.8517C58.0062 93.8517 59.2154 94.7981 63.5192 94.2798C63.5192 94.2798 62.6555 96.8636 61.1908 97.5546C61.1908 97.5546 64.8938 96.9537 67.4775 95.3163L72.2169 94.5427C72.2169 94.5427 72.2995 96.09 68.7694 97.9902C68.7694 97.9902 72.6451 97.2166 76.5207 95.5792C76.5207 95.5792 76.348 105.051 58.5244 106.688C58.5244 106.688 58.607 107.98 61.0181 108.153C61.0181 108.153 54.2131 111.6 50.683 112.547C50.683 112.547 55.2271 114.079 59.7487 113.305C59.7863 113.989 59.7863 115.566 59.1253 116.167C59.1253 116.167 62.31 116.084 64.9839 112.892C64.9839 112.892 74.1998 111.427 75.9199 107.469C75.9199 107.469 76.7836 112.809 68.3413 115.911C59.8989 119.013 64.5557 119.87 64.5557 119.87C64.5557 119.87 65.8476 119.006 69.6332 118.833C69.6332 118.833 72.8178 120.643 76.7836 120.726C76.7836 120.726 59.9064 129.942 55.6026 131.579C55.6026 131.579 50.9534 135.538 56.8119 135.628C56.8119 135.628 56.4664 134.336 60.943 134.764C60.943 134.764 62.9259 136.92 66.1931 135.8C66.1931 135.8 56.7218 141.396 53.3644 142.605C53.3644 142.605 45.0122 138.647 43.8029 133.134H51.1186C51.1186 133.134 45.1774 128.485 45.0873 127.103H51.2012C51.2012 127.103 41.0389 118.578 40.438 115.648C40.438 115.648 43.4499 117.113 45.0047 117.113C45.0047 117.113 40.5281 112.982 39.9272 110.226H45.5229C45.5229 110.226 37.7716 104.284 37.5162 102.129H42.1655C42.1655 102.129 33.7232 96.2702 32.4388 80.4296H30.3433C30.3433 80.4296 29.7724 97.5396 20.0082 102.587C20.0082 102.587 15.8771 106.034 25.401 102.82C25.401 102.82 26.6629 107.296 16.9061 113.838C16.9061 113.838 17.477 115.558 22.4192 115.213L12.4296 122.791C12.4296 122.791 13.0004 124.97 21.5029 123.941C21.5029 123.941 17.5971 133.585 6.69119 141.051C6.69119 141.051 10.1388 146.218 17.9427 140.938L9.56039 153.564C9.56039 153.564 14.1496 155.059 4.04736 163.779C4.04736 163.779 -5.59674 164.815 0.141645 162.059C0.141645 162.059 10.9349 158.957 -0.894873 158.731C-0.894873 158.731 -0.96999 158.709 -1.09017 158.664C-1.84877 158.822 -2.66748 158.912 -3.53875 158.912C-15.7065 158.912 -17.1561 142.327 -7.94017 138.309C-10.7568 136.371 -13.626 133.577 -15.2483 129.679C-15.2483 129.679 -5.83711 137.483 -9.7353 129.912C-9.7353 129.912 -10.3437 128.733 -9.69024 128.462C-10.877 125.308 -10.6742 121.582 -9.08185 118.63C-9.46491 118.232 -9.81038 117.827 -10.0808 117.391L-8.32324 117.421C-7.96271 116.933 -7.56459 116.475 -7.11393 116.054C-12.3641 113.688 -22.1584 108.859 -24.3141 104.87C-24.3141 104.87 -15.1281 109.805 -8.00774 109.805C-8.00774 109.805 -9.51746 105.982 -6.1901 106.635C-6.85106 105.847 -7.33929 104.96 -7.66227 103.969C-8.33074 102.692 -8.64619 101.31 -8.5861 99.8304V97.8025C-8.57859 95.8646 -8.09037 94.062 -7.12145 92.387C-7.09141 92.3495 -7.06137 92.3119 -7.03132 92.2744C-10.8469 89.3751 -14.2343 86.2055 -15.4736 83.3964C-15.4736 83.3964 -10.9971 85.6948 -6.06243 85.8074C-6.06243 85.8074 -4.80058 85.9201 -3.76407 85.9201C-3.76407 85.9201 -11.3426 79.4907 -8.81894 78.9199C-8.81894 78.9199 -0.782203 76.8543 -0.0911936 76.276C-0.0911936 76.276 -14.4447 73.9776 -8.36078 73.4068L-3.88423 73.0613C-3.88423 73.0613 -21.4524 67.6684 -23.8634 58.137C-23.8634 58.137 -19.0414 61.0062 -15.3685 61.1189C-15.3685 61.1189 -18.8161 57.446 -15.8267 57.446L-4.57527 58.0168C-4.57527 58.0168 -14.5648 52.8493 -10.892 52.8493L-6.76094 53.0821C-6.76094 53.0821 -23.1799 46.5401 -15.1432 46.3072H-7.2191C-7.2191 46.3072 -34.544 32.4119 -30.7585 31.6082H-23.4653C-23.4653 31.6082 -29.6093 28.3936 -26.7401 28.4536H-21.1144C-21.1144 28.4536 -40.1698 17.1421 -41.0936 -5.81892H-43.5347C-43.5347 -5.81892 -43.1065 17.2022 -66.0075 26.9289C-66.0075 26.9289 -71.3478 30.8046 -60.9301 28.2208C-60.9301 28.2208 -70.4014 38.7287 -52.0596 27.7927C-52.0596 27.7927 -51.5414 36.235 -67.5623 43.6333C-67.5623 43.6333 -65.4968 47.509 -60.1565 45.6162C-60.1565 45.6162 -66.6159 54.4867 -77.8072 59.3087C-77.8072 59.3087 -72.4669 61.3742 -66.8712 58.6177L-71.0924 63.5224C-71.0924 63.5224 -64.9785 63.3496 -59.2927 59.6467C-59.2927 59.6467 -59.2326 62.606 -61.6436 65.4752C-61.6436 65.4752 -61.0728 67.3154 -58.7744 66.8497C-58.7744 66.8497 -75.7642 84.0724 -77.7171 86.8289C-77.7171 86.8289 -84.6047 92.9128 -91.6124 94.6328C-91.6124 94.6328 -88.5104 97.1565 -83.2301 95.6693C-83.2301 95.6693 -86.903 98.6512 -86.903 100.604C-86.903 100.604 -80.1281 96.2402 -76.9134 96.2402C-76.9134 96.2402 -78.2879 100.491 -78.0626 102.099C-78.0626 102.099 -68.5312 96.473 -67.044 97.9677C-67.044 97.9677 -81.2773 126.209 -92.4161 119.321C-92.4161 119.321 -107.686 108.183 -104.584 107.724C-104.584 107.724 -96.8926 110.135 -95.1726 109.677C-95.1726 109.677 -102.864 103.015 -100.34 102.902C-100.34 102.902 -94.0234 103.248 -92.3034 101.753C-92.3034 101.753 -103.9 97.7348 -99.6491 97.7348C-99.6491 97.7348 -95.2853 96.2402 -94.7144 94.753C-94.7144 94.753 -112.508 94.1822 -115.152 82.1271C-115.152 82.1271 -102.984 89.7056 -108.955 81.7815H-95.0599C-95.0599 81.7815 -102.18 78.334 -101.947 77.4177H-97.2381C-97.2381 77.4177 -108.144 71.1009 -106.77 69.3809H-98.7328C-98.7328 69.3809 -119.283 61.915 -121.469 56.4095H-115.152C-115.152 56.4095 -117.908 54.2313 -118.021 52.7366H-112.283C-112.283 52.7366 -130.767 40.6815 -132.142 17.8331H-134.094C-134.094 17.8331 -132.142 39.9379 -156.252 50.7838C-156.252 50.7838 -163.658 53.713 -151.43 51.9855C-151.43 51.9855 -158.836 63.0041 -142.822 52.5038C-142.822 52.5038 -144.031 62.4934 -157.116 67.3154C-170.2 72.1375 -149.883 68.6899 -149.883 68.6899C-149.883 68.6899 -153.841 76.7867 -166.241 81.2633C-166.241 81.2633 -176.231 85.9126 -162.11 83.6743C-162.11 83.6743 -155.914 81.436 -159.699 86.0853C-159.699 86.0853 -166.587 94.0094 -151.775 85.0488C-151.775 85.0488 -146.089 92.1092 -156.943 99.1695C-156.943 99.1695 -170.034 110.188 -176.058 116.738C-176.058 116.738 -182.773 115.701 -182.773 111.916C-182.773 111.916 -171.063 110.706 -169.509 107.094C-169.509 107.094 -183.111 103.135 -183.802 100.724L-175.36 100.551C-175.36 100.551 -185.177 94.5201 -185.522 92.8001H-179.153C-179.153 92.8001 -184.493 89.3 -184.493 87.0017H-181.338C-181.338 87.0017 -185.124 84.6508 -185.417 83.1561H-182.773C-182.773 83.1561 -188.804 80.4596 -189.142 77.643H-183.749C-183.749 77.643 -194.024 73.219 -193.964 61.9676H-196.143C-196.143 61.9676 -194.708 78.8447 -205.787 82.803C-205.787 82.803 -204.179 84.2376 -202.917 84.1775C-202.917 84.1775 -203.203 88.5414 -212.847 89.4577C-212.847 89.4577 -209.632 91.9289 -206.012 91.9289C-206.012 91.9289 -207.274 93.8817 -212.043 95.429C-212.043 95.429 -209.805 97.7799 -207.567 97.6072C-207.567 97.6072 -213.192 104.607 -220.996 99.9581C-220.996 99.9581 -220.824 103.346 -215.138 106.155C-215.138 106.155 -214.447 108.108 -219.787 107.131C-219.787 107.131 -217.894 110.113 -214.732 110.804C-214.732 110.804 -216.34 113.102 -219.321 113.959C-219.321 113.959 -217.083 115.851 -208.934 115.453C-208.934 115.453 -215.13 125.157 -224.549 123.55C-224.549 123.55 -228.695 121.883 -225.683 121.537L-220.088 121.109C-220.088 121.109 -233.607 116.37 -234.509 111.765H-230.505C-230.505 111.765 -232.834 110.556 -233.044 109.182H-229.514C-229.514 109.182 -241.824 100.612 -241.569 84.9437H-243.552C-243.552 84.9437 -244.153 101.738 -258.273 108.453C-258.273 108.453 -256.809 110.09 -255.089 109.572C-255.089 109.572 -255.667 110.045 -256.08 112.006C-256.08 112.006 -252.077 109.167 -249.711 109.617C-249.711 109.617 -250.184 118.706 -260.256 119.825C-260.256 119.825 -271.71 115.949 -272.229 111.728H-263.013C-263.013 111.728 -272.229 104.84 -272.574 102.256L-263.794 100.619C-263.794 100.619 -278.35 94.4225 -279.807 89.3376L-265.168 87.3547C-265.168 87.3547 -277.396 80.039 -278.087 75.2996H-269.48C-269.48 75.2996 -279.988 64.8818 -280.844 60.8334H-273.183C-273.183 60.8334 -278.35 57.6488 -278.951 54.5468H-273.01C-273.01 54.5468 -284.547 44.7299 -285.238 42.3189H-279.897C-279.897 42.3189 -285.583 37.8424 -286.094 35.4313H-279.635C-279.635 35.4313 -289.534 30.8647 -289.797 27.4246H-283.428C-283.428 27.4246 -292.726 20.0188 -293.154 3.56979H-295.565C-295.565 3.56979 -293.845 20.2742 -307.365 29.3174C-307.365 29.3174 -302.37 30.782 -299.358 28.8893C-299.358 28.8893 -305.39 37.2415 -310.212 40.8618C-310.212 40.8618 -306.426 42.409 -302.46 41.4627C-302.46 41.4627 -311.586 49.7322 -314.771 50.7612C-314.771 50.7612 -308.056 52.0531 -304.781 51.2795C-304.781 51.2795 -313.224 67.9013 -320.457 70.2221C-320.457 70.2221 -314.087 72.5506 -309.175 70.2221C-309.175 70.2221 -314.08 79.7836 -318.391 82.1045C-318.391 82.1045 -318.046 84.17 -315.807 83.479C-315.807 83.479 -317.618 92.7776 -330.792 98.9817C-330.792 98.9817 -327.262 101.31 -319.255 100.874C-319.255 100.874 -323.822 112.066 -330.792 116.114C-330.792 116.114 -337.769 116.032 -338.889 112.066H-330.619C-330.619 112.066 -347.924 106.988 -348.961 102.076C-348.961 102.076 -345.175 105.351 -340.954 105.524C-340.954 105.524 -345.348 101.903 -345.521 100.183C-345.521 100.183 -342.682 102.422 -340.008 102.594C-340.008 102.594 -341.382 100.439 -341.382 99.237H-334.75C-334.75 99.237 -341.382 97.8625 -342.156 94.9333H-338.536C-338.536 94.9333 -348.698 91.4031 -349.644 86.7538L-346.715 85.6347C-346.715 85.6347 -349.472 84.5982 -349.554 83.479H-345.078C-345.078 83.479 -348.781 81.1506 -349.299 78.8297H-343.786C-343.786 78.8297 -348.435 78.0561 -348.781 75.9906H-341.72C-341.72 75.9906 -348.953 73.0613 -349.817 70.3048H-345.859C-345.859 70.3048 -348.187 69.4034 -348.57 68.2392H-345.904C-345.904 68.2392 -353.7 64.1909 -354.211 52.3986H-356.021C-356.021 52.3986 -355.33 65.9184 -364.028 67.1201C-364.028 67.1201 -363.855 68.412 -361.534 68.4946C-361.534 68.4946 -363.863 70.4775 -366.875 70.9883C-366.875 70.9883 -365.928 71.8521 -363.945 71.9347C-363.945 71.9347 -363.772 73.6547 -366.784 74.9466C-366.784 74.9466 -364.373 75.9831 -362.39 75.3747C-362.39 75.3747 -356.705 78.7321 -360.062 81.8341C-360.062 81.8341 -363.419 84.9361 -364.884 85.7924C-364.884 85.7924 -360.032 86.3407 -362.901 88.4062C-362.901 88.4062 -367.49 91.2754 -368.76 91.4482C-368.76 91.4482 -368.76 93.401 -366.063 93.3409C-366.063 93.3409 -365.32 96.0975 -370.54 98.2757C-370.54 98.2757 -367.783 99.3647 -364.854 97.8175C-364.854 97.8175 -368.527 103.045 -371.344 104.652C-371.344 104.652 -365.951 104.825 -363.48 102.414C-363.48 102.414 -357.681 102.82 -360.836 105.058C-360.836 105.058 -362.383 106.898 -364.05 107.236C-364.05 107.236 -362.728 108.498 -360.723 107.755C-360.723 107.755 -363.021 112.516 -365.312 113.32C-365.312 113.32 -363.472 113.891 -361.925 113.891C-361.925 113.891 -363.765 117.106 -365.658 118.255C-365.658 118.255 -364.396 119.749 -360.723 118.195C-360.723 118.195 -360.325 124.564 -371.974 124.797C-371.974 124.797 -371.171 127.095 -368.993 126.862C-368.993 126.862 -369.736 134.156 -377.029 127.779C-377.029 127.779 -386.328 118.195 -386.501 115.664H-377.66C-377.66 115.664 -386.613 110.436 -387.132 107.972H-382.249C-382.249 107.972 -390.714 100.424 -390.804 97.9226C-390.804 97.9226 -385.382 99.2145 -384.608 99.2971C-384.608 99.2971 -393.734 90.8548 -393.734 77.9435H-395.889C-395.889 77.9435 -395.717 89.3076 -403.205 96.5406C-403.205 96.5406 -401.831 97.487 -399.848 97.3142C-399.848 97.3142 -404.242 101.273 -406.908 102.564C-406.908 102.564 -404.752 103.939 -402.259 103.428C-402.259 103.428 -402.086 106.267 -405.879 108.678L-402.176 108.934C-402.176 108.934 -404.414 114.101 -410.671 116.738C-410.671 116.738 -408.605 118.405 -406.825 118.63C-406.825 118.63 -409.582 121.732 -411.302 122.822C-411.302 122.822 -409.236 124.083 -406.074 123.392C-406.074 123.392 -406.645 128.62 -412.789 131.662C-412.789 131.662 -419.451 132.06 -420.308 126.554H-413.247C-413.247 126.554 -420.826 121.965 -420.886 119.036H-414.224C-414.224 119.036 -425.13 112.036 -425.708 109.279H-415.718C-415.718 109.279 -423.988 101.813 -424.446 98.7188H-418.017C-418.017 98.7188 -426.744 90.6821 -427.203 86.7764H-421.344C-421.344 86.7764 -424.446 85.169 -425.25 81.9543H-421.577C-421.577 81.9543 -431.334 74.7212 -431.108 72.4229C-431.108 72.4229 -427.661 74.4884 -426.399 73.6847C-426.399 73.6847 -431.792 68.2918 -431.912 67.0225H-425.828C-425.828 67.0225 -432.716 63.1168 -433.061 61.1639H-429.043C-429.043 61.1639 -436.967 52.4362 -436.967 43.3704H-439.145C-439.145 43.3704 -436.967 54.8547 -447.182 61.8549C-447.182 61.8549 -445.574 63.9205 -442.472 62.7713C-442.472 62.7713 -448.444 70.117 -449.818 71.2662C-449.818 71.2662 -447.753 71.7243 -445.567 71.1535C-445.567 71.1535 -450.734 77.1247 -453.604 78.7321C-453.604 78.7321 -450.622 80.1066 -446.716 79.5358C-446.716 79.5358 -450.734 90.6746 -458.313 94.2348C-458.313 94.2348 -451.771 95.3839 -449.24 93.5437C-449.24 93.5437 -455.324 103.188 -456.586 104.224C-456.586 104.224 -456.353 104.457 -455.091 104.457C-455.091 104.457 -456.007 111.345 -465.651 116.279C-465.651 116.279 -461.062 119.261 -457.615 118.12C-457.615 118.12 -459.793 124.204 -462.437 125.811C-462.437 125.811 -464.735 126.156 -465.418 123.633C-465.418 123.633 -466.237 123.302 -467.491 122.701V194.589H189.801V136.446C188.757 135.718 187.495 134.576 185.978 132.789L185.287 129.949L189.801 130.535V130.475C189.02 130.01 184.844 127.441 184.686 125.646V124.609H189.816V124.647Z" fill="#515151"/>
</g>
<path d="M706.519 121.77C706.526 121.725 706.519 121.68 706.519 121.635C706.466 122.055 706.443 122.236 706.519 121.77Z" fill="#515151"/>
<path d="M791.625 149.591V149.576C791.175 149.388 786.082 147.18 785.286 144.273H789.012C789.012 144.273 782.244 141.539 782.244 128.004H780.119C780.119 128.004 781.335 139.18 772.442 145.715C772.442 145.715 775.101 146.474 777.843 145.715C777.843 145.715 774.726 150.274 771.075 152.94C771.075 152.94 773.359 154.383 776.243 153.699C776.243 153.699 769.708 158.491 767.275 159.625C767.275 159.625 770.542 160.992 773.734 160.992C773.734 160.992 770.234 171.027 765.825 166.01C765.825 166.01 758.224 161.218 758.224 158.942L764.961 159.828C764.961 159.828 761.341 157.47 761.311 155.569H766.711C766.711 155.569 761.747 154.503 760.906 152.633L764.376 151.416C764.376 151.416 754.641 150.86 753.274 142.801C753.274 142.801 758.397 145.737 757.225 141.937H764.12C764.12 141.937 760.725 141.231 759.764 139H763.617C763.617 139 758.495 138.091 757.533 134.944H762.701C762.701 134.944 749.166 129.116 749.068 125.616H752.463C752.463 125.616 751.554 125.007 751.299 123.588H754.393C754.393 123.588 744.231 118.42 743.322 101.085H740.739C740.739 101.085 742.714 115.303 727.887 122.754C727.887 122.754 729.712 124.504 730.396 124.046C730.396 124.046 727.887 128.838 734.58 123.663C734.58 123.663 739.597 122.408 734.084 128.184C734.001 128.274 733.911 128.365 733.821 128.455C733.821 128.455 730.967 131.534 726.37 133.66C726.37 133.66 727.737 135.139 731.124 134.914C731.124 134.914 727.286 139.856 721.353 142.846C721.353 142.846 723.028 144.16 726.115 142.898C726.115 142.898 726.618 145.535 724.598 146.849C724.598 146.849 728.548 146.143 730.982 144.01V150.747C730.982 150.747 723.584 162.607 718.213 153.939C718.213 153.939 706.654 149.53 705.692 146.691C705.692 146.691 708.178 143.957 711.926 147.856C715.674 151.761 713.954 145.369 713.954 145.369C713.954 145.369 726.272 149.02 717.808 143.139C717.808 143.139 706.609 137.415 712.234 138.422L722.119 138.166C722.119 138.166 705.7 131.121 703.619 127.726L708.133 128.432C708.133 128.432 702.891 124.932 702.508 122.656V121.139L704.596 119.697C704.596 119.697 706.406 120.471 706.541 121.485C706.549 121.522 706.541 121.567 706.541 121.605C706.624 120.989 706.766 119.862 706.766 119.389C706.766 119.389 710.912 119.652 712.279 122.694C712.279 122.694 713.113 121.552 713.113 120.373H720.301C720.301 120.373 701.787 114.672 701.411 110.075C701.411 110.075 704.566 108.438 706.466 110.947C706.466 110.947 708.674 111.938 708.749 109.197H713.842C713.842 109.197 705.858 105.396 705.024 101.671C705.024 101.671 709.433 99.545 711.333 103.346C711.333 103.346 712.017 102.737 712.167 100.687H718.934C718.934 100.687 703.732 92.4021 703.424 88.4438C703.424 88.4438 707.533 90.5694 708.975 88.9019C708.975 88.9019 711.1 90.2689 713.917 90.4192C713.917 90.4192 712.55 89.0522 712.55 87.6852H717.492C717.492 87.6852 702.823 86.9266 701.757 77.5754C701.757 77.5754 700.39 74.9165 699.173 73.2416L698.414 64.1983H696.364C696.364 64.1983 699.406 82.7505 685.263 82.067C685.263 82.067 687.846 84.5756 694.997 85.184C694.997 85.184 694.313 95.3689 677.894 102.82C677.894 102.82 680.478 104.112 682.003 103.886L681.853 106.245C681.853 106.245 684.061 105.103 686.645 102.369C686.645 102.369 687.636 101.002 695.004 100.769C695.004 100.769 692.796 103.503 688.995 103.203C688.995 103.203 689.829 106.62 693.48 107.078C693.48 107.078 689.221 116.279 680.711 117.338C680.711 117.338 681.319 118.781 682.761 118.938C682.761 118.938 678.811 121.83 675.31 122.356C675.31 122.356 676.377 123.19 680.178 122.739C680.178 122.739 679.419 125.022 678.127 125.631C678.127 125.631 681.394 125.097 683.678 123.655L687.861 122.972C687.861 122.972 687.936 124.339 684.819 126.014C684.819 126.014 688.237 125.33 691.662 123.888C691.662 123.888 691.512 132.248 675.776 133.697C675.776 133.697 675.851 134.839 677.984 134.989C677.984 134.989 671.976 138.031 668.859 138.865C668.859 138.865 672.869 140.217 676.865 139.533C676.895 140.134 676.903 141.531 676.309 142.057C676.309 142.057 679.126 141.982 681.477 139.165C681.477 139.165 689.611 137.873 691.129 134.373C691.129 134.373 691.887 139.09 684.436 141.824C676.985 144.558 681.094 145.324 681.094 145.324C681.094 145.324 682.236 144.566 685.578 144.416C685.578 144.416 688.387 146.015 691.887 146.09C691.887 146.09 676.985 154.225 673.185 155.667C673.185 155.667 669.076 159.167 674.251 159.242C674.251 159.242 673.951 158.101 677.902 158.484C677.902 158.484 679.652 160.384 682.536 159.392C682.536 159.392 674.176 164.335 671.21 165.401C671.21 165.401 663.834 161.901 662.767 157.041H669.227C669.227 157.041 663.984 152.933 663.901 151.716H669.302C669.302 151.716 660.334 144.19 659.8 141.606C659.8 141.606 662.459 142.898 663.826 142.898C663.826 142.898 659.875 139.248 659.342 136.814H664.284C664.284 136.814 657.442 131.572 657.217 129.672H661.325C661.325 129.672 653.874 124.504 652.732 110.511H650.885C650.885 110.511 650.382 125.616 641.759 130.077C641.759 130.077 638.109 133.119 646.521 130.28C646.521 130.28 647.633 134.231 639.017 140.014C639.017 140.014 639.521 141.531 643.885 141.231L635.067 147.923C635.067 147.923 635.57 149.846 643.073 148.937C643.073 148.937 639.626 157.455 629.997 164.042C629.997 164.042 633.039 168.601 639.934 163.944L632.536 175.098C632.536 175.098 636.591 176.412 627.668 184.119C627.668 184.119 619.151 185.027 624.221 182.601C624.221 182.601 633.752 179.867 623.312 179.665C623.312 179.665 614.997 176.931 612.158 172.769C612.158 172.769 612.661 170.644 617.934 174.287C617.934 174.287 622.899 177.126 617.731 170.336C617.731 170.336 619.451 169.728 624.221 173.783C624.221 173.783 628.277 175.503 624.116 169.224L629.892 169.93C629.892 169.93 631.003 168.008 624.011 164.966C624.011 164.966 614.074 162.329 610.633 154.015C610.633 154.015 618.948 160.91 615.501 154.217C615.501 154.217 614.186 151.686 617.829 153.609C617.829 153.609 627.864 156.651 622.899 151.784L632.228 151.679C632.228 151.679 634.256 149.448 623.71 148.637C623.71 148.637 617.221 146.406 615.193 143.161L620.766 143.259C620.766 143.259 605.256 136.972 602.619 132.105C602.619 132.105 610.731 136.461 617.01 136.461C617.01 136.461 615.29 132.105 620.052 134.133C620.052 134.133 624.514 135.755 629.786 135.147C629.786 135.147 632.318 133.93 627.15 130.588L625.325 128.665C625.325 128.665 626.437 129.777 631.101 129.371C631.101 129.371 613.465 120.042 610.423 113.155C610.423 113.155 614.374 115.183 618.738 115.28C618.738 115.28 619.849 115.378 620.766 115.378C620.766 115.378 614.074 109.7 616.304 109.197C616.304 109.197 623.402 107.371 624.011 106.868C624.011 106.868 611.34 104.84 616.71 104.337L620.661 104.037C620.661 104.037 605.15 99.2746 603.025 90.8623C603.025 90.8623 607.284 93.3935 610.528 93.4986C610.528 93.4986 607.486 90.2539 610.123 90.2539L620.06 90.7572C620.06 90.7572 611.242 86.198 614.487 86.198L618.137 86.4008C618.137 86.4008 603.641 80.6249 610.739 80.4221H617.731C617.731 80.4221 593.606 68.1566 596.949 67.4506H603.385C603.385 67.4506 597.962 64.6115 600.494 64.6641H605.458C605.458 64.6641 588.634 54.6819 587.823 34.4098H585.667C585.667 34.4098 586.05 54.7345 565.823 63.3271C565.823 63.3271 561.106 66.7446 570.307 64.4688C570.307 64.4688 561.947 73.7448 578.141 64.0857C578.141 64.0857 578.599 71.5366 564.456 78.0711C564.456 78.0711 566.281 81.4886 570.991 79.8212C570.991 79.8212 565.29 87.6551 555.405 91.9063C555.405 91.9063 560.122 93.7315 565.057 91.2979L561.331 95.6318C561.331 95.6318 566.732 95.4816 571.749 92.2143C571.749 92.2143 571.802 94.8281 569.669 97.3593C569.669 97.3593 570.172 98.9817 572.2 98.5761C572.2 98.5761 557.2 113.778 555.473 116.212C555.473 116.212 549.389 121.582 543.208 123.107C543.208 123.107 545.942 125.338 550.606 124.016C550.606 124.016 547.361 126.652 547.361 128.372C547.361 128.372 553.34 124.519 556.179 124.519C556.179 124.519 554.962 128.267 555.165 129.686C555.165 129.686 563.577 124.722 564.899 126.036C564.899 126.036 552.333 150.973 542.494 144.889C542.494 144.889 529.012 135.057 531.746 134.651C531.746 134.651 538.536 136.777 540.06 136.371C540.06 136.371 533.271 130.49 535.501 130.393C535.501 130.393 541.074 130.693 542.599 129.379C542.599 129.379 532.362 125.833 536.11 125.833C536.11 125.833 539.963 124.519 540.466 123.197C540.466 123.197 524.753 122.694 522.425 112.043C522.425 112.043 533.173 118.736 527.9 111.743H540.166C540.166 111.743 533.879 108.701 534.082 107.89H538.235C538.235 107.89 528.606 102.317 529.823 100.792H536.921C536.921 100.792 518.774 94.2047 516.852 89.3376H522.425C522.425 89.3376 519.991 87.4148 519.893 86.0928H524.963C524.963 86.0928 508.642 75.4498 507.425 55.2753H505.705C505.705 55.2753 507.425 74.7888 486.139 84.3653C486.139 84.3653 479.605 86.9491 490.398 85.4319C490.398 85.4319 483.863 95.1661 497.999 85.89C497.999 85.89 496.932 94.7079 485.381 98.9666C473.829 103.225 491.765 100.183 491.765 100.183C491.765 100.183 488.265 107.326 477.321 111.285C477.321 111.285 468.503 115.393 480.972 113.41C480.972 113.41 486.447 111.435 483.097 115.536C483.097 115.536 477.013 122.529 490.09 114.627C490.09 114.627 495.107 120.861 485.531 127.095C485.531 127.095 473.979 136.829 468.654 142.605C468.654 142.605 462.727 141.697 462.727 138.347C462.727 138.347 473.07 137.28 474.437 134.088C474.437 134.088 462.427 130.588 461.819 128.462L469.27 128.312C469.27 128.312 460.602 122.987 460.301 121.469H465.927C465.927 121.469 461.21 118.375 461.21 116.347H463.997C463.997 116.347 460.654 114.266 460.399 112.952H462.727C462.727 112.952 457.402 110.571 457.102 108.085H461.864C461.864 108.085 452.79 104.179 452.843 94.2497H450.92C450.92 94.2497 452.19 109.151 442.403 112.644C442.403 112.644 443.822 113.913 444.934 113.861C444.934 113.861 444.679 117.714 436.169 118.525C436.169 118.525 439.008 120.703 442.2 120.703C442.2 120.703 441.088 122.423 436.875 123.798C436.875 123.798 438.85 125.878 440.825 125.721C440.825 125.721 435.861 131.902 428.966 127.801C428.966 127.801 429.116 130.791 434.133 133.277C434.133 133.277 434.742 134.997 430.025 134.141C430.025 134.141 431.7 136.777 434.486 137.385C434.486 137.385 433.067 139.413 430.43 140.172C430.43 140.172 432.406 141.847 439.601 141.486C439.601 141.486 434.126 150.049 425.819 148.629C425.819 148.629 422.153 147.157 424.82 146.857L429.762 146.474C429.762 146.474 417.827 142.29 417.031 138.227H420.568C420.568 138.227 418.518 137.16 418.323 135.943H421.44C421.44 135.943 410.571 128.38 410.797 114.544H409.047C409.047 114.544 408.513 129.371 396.045 135.297C396.045 135.297 397.337 136.739 398.854 136.289C398.854 136.289 398.343 136.709 397.983 138.437C397.983 138.437 401.521 135.928 403.609 136.326C403.609 136.326 403.188 144.348 394.295 145.332C394.295 145.332 384.185 141.914 383.727 138.189H391.861C391.861 138.189 383.727 132.105 383.419 129.829L391.17 128.387C391.17 128.387 378.319 122.912 377.027 118.428L389.954 116.678C389.954 116.678 379.16 110.218 378.552 106.034H386.153C386.153 106.034 376.877 96.8335 376.118 93.2658H382.886C382.886 93.2658 378.327 90.4567 377.793 87.7152H383.036C383.036 87.7152 372.851 79.0475 372.243 76.9219H376.96C376.96 76.9219 371.942 72.9712 371.484 70.8381H377.185C377.185 70.8381 368.442 66.8122 368.217 63.7702H373.843C373.843 63.7702 365.633 57.2357 365.25 42.7095H363.124C363.124 42.7095 364.642 57.461 352.707 65.4377C352.707 65.4377 357.116 66.7295 359.775 65.0546C359.775 65.0546 354.449 72.4304 350.198 75.6225C350.198 75.6225 353.54 76.9895 357.041 76.1558C357.041 76.1558 348.981 83.4565 346.172 84.3653C346.172 84.3653 352.098 85.507 354.99 84.8235C354.99 84.8235 347.539 99.4924 341.155 101.55C341.155 101.55 346.781 103.601 351.114 101.55C351.114 101.55 346.781 109.993 342.98 112.043C342.98 112.043 343.28 113.868 345.263 113.26C345.263 113.26 343.664 121.47 332.037 126.945C332.037 126.945 335.154 128.996 342.221 128.62C342.221 128.62 338.196 138.504 332.037 142.08C332.037 142.08 325.878 142.005 324.894 138.504H332.194C332.194 138.504 316.917 134.02 316.001 129.686C316.001 129.686 319.343 132.578 323.068 132.728C323.068 132.728 319.193 129.536 319.043 128.012C319.043 128.012 321.551 129.987 323.91 130.137C323.91 130.137 322.693 128.237 322.693 127.17H328.544C328.544 127.17 322.693 125.954 322.009 123.37H325.202C325.202 123.37 316.233 120.253 315.392 116.144L317.976 115.153C317.976 115.153 315.542 114.244 315.467 113.253H319.418C319.418 113.253 316.151 111.202 315.693 109.144H320.56C320.56 109.144 316.451 108.46 316.151 106.635H322.385C322.385 106.635 316.001 104.052 315.242 101.618H318.742C318.742 101.618 316.692 100.822 316.346 99.7928H318.705C318.705 99.7928 311.824 96.2176 311.366 85.8074H309.767C309.767 85.8074 310.375 97.7423 302.699 98.8089C302.699 98.8089 302.849 99.9506 304.907 100.026C304.907 100.026 302.856 101.776 300.19 102.234C300.19 102.234 301.024 102.993 302.774 103.068C302.774 103.068 302.924 104.585 300.265 105.727C300.265 105.727 302.391 106.635 304.141 106.11C304.141 106.11 309.158 109.076 306.191 111.81C306.191 111.81 303.224 114.544 301.933 115.311C301.933 115.311 306.214 115.791 303.683 117.616C303.683 117.616 299.627 120.148 298.515 120.305C298.515 120.305 298.515 122.025 300.896 121.98C300.896 121.98 301.557 124.414 296.945 126.337C296.945 126.337 299.379 127.298 301.963 125.931C301.963 125.931 298.718 130.543 296.232 131.962C296.232 131.962 300.994 132.113 303.172 129.987C303.172 129.987 308.294 130.34 305.5 132.315C305.5 132.315 304.133 133.938 302.661 134.238C302.661 134.238 303.825 135.35 305.598 134.696C305.598 134.696 303.57 138.902 301.542 139.616C301.542 139.616 303.164 140.119 304.531 140.119C304.531 140.119 302.909 142.958 301.234 143.972C301.234 143.972 302.346 145.287 305.59 143.92C305.59 143.92 305.943 149.546 295.653 149.748C295.653 149.748 296.359 151.776 298.29 151.573C298.29 151.573 297.629 158.01 291.192 152.385C291.192 152.385 282.982 143.92 282.832 141.689H290.636C290.636 141.689 282.727 137.077 282.276 134.899H286.588C286.588 134.899 279.114 128.237 279.039 126.029C279.039 126.029 283.831 127.17 284.515 127.245C284.515 127.245 276.455 119.795 276.455 108.393H274.555C274.555 108.393 274.705 118.428 268.096 124.812C268.096 124.812 269.312 125.646 271.062 125.495C271.062 125.495 267.187 128.996 264.828 130.13C264.828 130.13 266.729 131.346 268.937 130.888C268.937 130.888 269.087 133.397 265.745 135.523L269.012 135.748C269.012 135.748 267.037 140.307 261.509 142.643C261.509 142.643 263.334 144.115 264.903 144.318C264.903 144.318 262.47 147.052 260.953 148.021C260.953 148.021 262.778 149.132 265.564 148.524C265.564 148.524 265.061 153.136 259.638 155.825C259.638 155.825 253.757 156.178 252.999 151.311H259.233C259.233 151.311 252.54 147.255 252.495 144.671H258.376C258.376 144.671 248.747 138.489 248.237 136.056H257.054C257.054 136.056 249.754 129.469 249.348 126.727H255.027C255.027 126.727 247.32 119.629 246.915 116.182H252.082C252.082 116.182 249.348 114.762 248.635 111.923H251.879C251.879 111.923 243.264 105.539 243.467 103.511C243.467 103.511 246.509 105.336 247.621 104.622C247.621 104.622 242.859 99.8605 242.754 98.7413H248.124C248.124 98.7413 242.04 95.2938 241.74 93.5738H245.285C245.285 93.5738 238.292 85.8675 238.292 77.8608H236.369C236.369 77.8608 238.292 88.0006 229.271 94.1822C229.271 94.1822 230.691 96.0073 233.425 94.9933C233.425 94.9933 228.152 101.483 226.936 102.497C226.936 102.497 228.761 102.902 230.683 102.399C230.683 102.399 226.124 107.672 223.586 109.091C223.586 109.091 226.222 110.308 229.669 109.797C229.669 109.797 226.124 119.629 219.432 122.769C219.432 122.769 225.208 123.783 227.439 122.161C227.439 122.161 222.068 130.678 220.949 131.587C220.949 131.587 221.152 131.79 222.264 131.79C222.264 131.79 221.452 137.873 212.935 142.23C212.935 142.23 216.991 144.866 220.033 143.852C220.033 143.852 218.11 149.223 215.774 150.642C215.774 150.642 213.746 150.943 213.138 148.719C213.138 148.719 212.417 148.426 211.305 147.893V211.361H791.61V160.031C790.687 159.385 789.575 158.378 788.23 156.801L787.622 154.292L791.61 154.811V154.758C790.919 154.345 787.231 152.084 787.096 150.499V149.591H791.625Z" fill="#515151"/>
<path d="M-0.466722 238.348H829V69.9593C829 69.9593 826.837 82.7504 819.116 87.3547C819.116 87.3547 814.309 89.9234 821.887 89.5178C821.887 89.5178 822.901 94.3925 812.483 95.2713C812.483 95.2713 814.984 98.0428 819.453 97.9076C819.453 97.9076 819.521 100.612 812.686 101.363C812.686 101.363 814.173 103.526 818.102 104.405C818.102 104.405 810.388 110.631 804.634 106.297C804.634 106.297 805.581 110.226 810.726 113.335C810.726 113.335 807.684 115.295 804.77 113.132C804.77 113.132 806.257 116.107 810.996 116.52C810.996 116.52 810.929 119.907 805.851 120.854C805.851 120.854 808.488 122.408 816.614 122.544C816.614 122.544 811.74 129.176 802.471 129.852C802.471 129.852 803.282 132.421 812.491 132.556C812.491 132.556 806.572 143.957 799.362 145.587C799.362 145.587 800.578 148.734 805.348 148.532C810.117 148.329 812.859 144.671 812.859 144.671C812.859 144.671 811.537 150.154 805.956 152.895C805.956 152.895 810.223 154.518 813.467 151.881C813.467 151.881 813.572 154.923 808.795 157.462C808.795 157.462 810.012 159.392 814.173 158.784C814.173 158.784 813.159 168.12 803.207 171.064C803.207 171.064 800.466 172.792 794.277 165.484L793.466 162.134L798.949 162.847C798.949 162.847 792.962 159.392 792.76 157.064V155.847H798.851C798.851 155.847 791.438 152.805 790.326 148.742H795.298C795.298 148.742 786.263 145.084 786.263 127.02H783.423C783.423 127.02 785.046 141.944 773.171 150.672C773.171 150.672 776.724 151.686 780.381 150.672C780.381 150.672 776.22 156.764 771.346 160.316C771.346 160.316 774.388 162.247 778.248 161.33C778.248 161.33 769.521 167.73 766.268 169.247C766.268 169.247 770.632 171.072 774.898 171.072C774.898 171.072 770.227 184.472 764.338 177.772C764.338 177.772 754.183 171.372 754.183 168.33L763.181 169.517C763.181 169.517 758.344 166.37 758.307 163.831H765.517C765.517 163.831 758.885 162.412 757.766 159.903L762.4 158.281C762.4 158.281 749.406 157.537 747.581 146.774C747.581 146.774 754.416 150.702 752.861 145.625H762.062C762.062 145.625 757.526 144.678 756.241 141.697H761.386C761.386 141.697 754.551 140.48 753.267 136.281H760.169C760.169 136.281 742.098 128.5 741.963 123.828H746.499C746.499 123.828 745.283 123.017 744.945 121.124H749.076C749.076 121.124 735.503 114.221 734.287 91.0726H730.832C730.832 91.0726 733.468 110.053 713.677 120.005C713.677 120.005 716.11 122.341 717.026 121.732C717.026 121.732 713.677 128.132 722.607 121.222C722.607 121.222 729.299 119.547 721.939 127.253C721.826 127.373 721.706 127.493 721.586 127.614C721.586 127.614 717.778 131.722 711.634 134.569C711.634 134.569 713.459 136.552 717.98 136.244C717.98 136.244 712.85 142.846 704.934 146.834C704.934 146.834 707.165 148.592 711.296 146.902C711.296 146.902 711.972 150.424 709.268 152.182C709.268 152.182 714.548 151.235 717.793 148.389V157.387C717.793 157.387 707.908 173.22 700.735 161.653C700.735 161.653 685.308 155.765 684.016 151.972C684.016 151.972 687.336 148.314 692.338 153.526C697.348 158.739 695.042 150.206 695.042 150.206C695.042 150.206 711.491 155.081 700.187 147.232C700.187 147.232 685.232 139.586 692.743 140.938L705.94 140.6C705.94 140.6 684.016 131.196 681.237 126.66L687.26 127.606C687.26 127.606 680.253 122.934 679.749 119.892V117.864L682.544 115.934C682.544 115.934 684.962 116.97 685.135 118.322C685.15 118.435 685.15 118.555 685.127 118.675C684.872 120.2 685.435 116.595 685.435 115.528C685.435 115.528 690.971 115.881 692.796 119.945C692.796 119.945 693.915 118.42 693.915 116.85H703.507C703.507 116.85 678.788 109.234 678.277 103.098C678.277 103.098 682.491 100.912 685.03 104.262C685.03 104.262 687.974 105.584 688.072 101.926H694.877C694.877 101.926 684.219 96.8486 683.099 91.8763C683.099 91.8763 688.988 89.0371 691.527 94.107C691.527 94.107 692.443 93.2959 692.646 90.5544H701.682C701.682 90.5544 681.379 79.4907 680.974 74.2105C680.974 74.2105 686.457 77.0496 688.387 74.8189C688.387 74.8189 691.226 76.644 694.989 76.8468C694.989 76.8468 693.164 75.0217 693.164 73.189H699.766C699.766 73.189 680.17 72.175 678.75 59.6843C678.75 59.6843 676.925 56.1316 675.295 53.9008L674.281 41.8232H671.54C671.54 41.8232 675.603 66.5944 656.721 65.678C656.721 65.678 660.176 69.0279 669.715 69.8391C669.715 69.8391 668.798 83.4415 646.874 93.3935C646.874 93.3935 650.329 95.121 652.357 94.8131L652.154 97.9602C652.154 97.9602 655.098 96.4355 658.553 92.7851C658.553 92.7851 659.875 90.96 669.722 90.652C669.722 90.652 666.778 94.3099 661.701 93.9043C661.701 93.9043 662.82 98.4709 667.687 99.0793C667.687 99.0793 662.001 111.36 650.629 112.787C650.629 112.787 651.441 114.717 653.371 114.92C653.371 114.92 648.091 118.781 643.419 119.487C643.419 119.487 644.838 120.606 649.916 119.997C649.916 119.997 648.902 123.039 647.174 123.858C647.174 123.858 651.538 123.144 654.588 121.222L660.168 120.305C660.168 120.305 660.274 122.13 656.105 124.369C656.105 124.369 660.672 123.452 665.238 121.53C665.238 121.53 665.035 132.698 644.02 134.629C644.02 134.629 644.125 136.153 646.964 136.356C646.964 136.356 638.942 140.42 634.781 141.531C634.781 141.531 640.467 143.462 645.95 142.343C651.433 141.223 645.439 142.035 645.439 142.035C645.439 142.035 645.747 144.874 644.726 145.79C644.726 145.79 648.481 145.685 651.628 141.929C651.628 141.929 662.489 140.202 664.525 135.53C664.525 135.53 665.539 141.824 655.594 145.482C645.642 149.14 651.125 150.154 651.125 150.154C651.125 150.154 652.65 149.14 657.111 148.937C657.111 148.937 660.867 151.07 665.539 151.168C665.539 151.168 645.642 162.029 640.565 163.959C640.565 163.959 635.082 168.631 641.984 168.729C641.984 168.729 641.579 167.204 646.859 167.715C646.859 167.715 649.195 170.253 653.048 168.931C653.048 168.931 641.879 175.534 637.921 176.953C637.921 176.953 628.074 172.281 626.654 165.784H635.284C635.284 165.784 628.277 160.301 628.179 158.679H635.39C635.39 158.679 623.41 148.629 622.704 145.174C622.704 145.174 626.256 146.902 628.081 146.902C628.081 146.902 622.801 142.027 622.095 138.782H628.697C628.697 138.782 619.564 131.775 619.256 129.236H624.739C624.739 129.236 614.787 122.333 613.27 103.653H610.799C610.799 103.653 610.123 123.82 598.616 129.777C598.616 129.777 593.741 133.84 604.978 130.047C604.978 130.047 606.465 135.327 594.958 143.041C594.958 143.041 595.634 145.069 601.455 144.663L589.678 153.594C589.678 153.594 590.354 156.163 600.374 154.946C600.374 154.946 595.769 166.318 582.911 175.113C582.911 175.113 586.974 181.204 596.175 174.978L586.29 189.864C586.29 189.864 591.706 191.622 579.793 201.912C579.793 201.912 568.422 203.129 575.189 199.884C575.189 199.884 587.913 196.226 573.972 195.956C573.972 195.956 562.871 192.298 559.086 186.755C559.086 186.755 559.762 183.916 566.799 188.783C566.799 188.783 573.432 192.576 566.529 183.503C566.529 183.503 568.827 182.691 575.189 188.107C575.189 188.107 580.605 190.405 575.054 182.015L582.768 182.962C582.768 182.962 584.255 180.393 574.919 176.33C574.919 176.33 561.654 172.807 557.05 161.713C557.05 161.713 568.151 170.914 563.547 161.984C563.547 161.984 561.79 158.596 566.657 161.173C566.657 161.173 580.056 165.236 573.424 158.739L585.877 158.604C585.877 158.604 588.581 155.629 574.506 154.54C574.506 154.54 565.846 151.566 563.134 147.232L570.577 147.367C570.577 147.367 549.87 138.978 546.347 132.481C546.347 132.481 557.178 138.302 565.568 138.302C565.568 138.302 563.269 132.481 569.631 135.192C569.631 135.192 575.587 137.355 582.625 136.544C582.625 136.544 586.013 134.922 579.102 130.453L576.669 127.884C576.669 127.884 578.156 129.371 584.383 128.83C584.383 128.83 560.828 116.377 556.772 107.176C556.772 107.176 562.053 109.88 567.874 110.015C567.874 110.015 569.361 110.151 570.577 110.151C570.577 110.151 561.647 102.572 564.621 101.896C564.621 101.896 574.093 99.4624 574.911 98.7864C574.911 98.7864 557.989 96.0824 565.162 95.3989L570.442 94.9933C570.442 94.9933 549.735 88.6315 546.888 77.3951C546.888 77.3951 552.574 80.7826 556.908 80.9178C556.908 80.9178 552.844 76.584 556.367 76.584L569.631 77.2599C569.631 77.2599 557.854 71.1685 562.188 71.1685L567.062 71.4389C567.062 71.4389 547.707 63.7252 557.178 63.4548H566.514C566.514 63.4548 534.299 47.0733 538.769 46.127H547.361C547.361 46.127 540.12 42.3339 543.5 42.4015H550.133C550.133 42.4015 527.66 29.0695 526.578 2H523.701C523.701 2 524.212 29.1371 497.203 40.6139C497.203 40.6139 490.909 45.1806 503.189 42.1386C503.189 42.1386 492.02 54.5242 513.644 41.6279C513.644 41.6279 514.253 51.5799 495.37 60.3077C495.37 60.3077 497.804 64.8744 504.098 62.6436C504.098 62.6436 496.482 73.0989 483.285 78.7847C483.285 78.7847 489.579 81.2182 496.181 77.9735L491.209 83.7569C491.209 83.7569 498.42 83.5541 505.119 79.1903C505.119 79.1903 505.187 82.6754 502.348 86.0628C502.348 86.0628 503.024 88.2259 505.735 87.6852C505.735 87.6852 485.704 107.987 483.398 111.24C483.398 111.24 475.278 118.413 467.016 120.44C467.016 120.44 470.674 123.415 476.901 121.657C476.901 121.657 472.567 125.18 472.567 127.478C472.567 127.478 480.551 122.333 484.344 122.333C484.344 122.333 482.722 127.343 482.992 129.236C482.992 129.236 494.228 122.604 495.986 124.361C495.986 124.361 479.199 157.657 466.07 149.538C466.07 149.538 448.066 136.409 451.724 135.868C451.724 135.868 460.79 138.707 462.825 138.166C462.825 138.166 453.759 130.317 456.734 130.182C456.734 130.182 464.177 130.588 466.205 128.83C466.205 128.83 452.535 124.091 457.545 124.091C457.545 124.091 462.69 122.333 463.366 120.568C463.366 120.568 442.388 119.892 439.271 105.681C439.271 105.681 453.617 114.612 446.579 105.276H462.96C462.96 105.276 454.571 101.212 454.841 100.131H460.392C460.392 100.131 447.533 92.6875 449.155 90.6595H458.626C458.626 90.6595 434.396 81.8642 431.827 75.3672H439.271C439.271 75.3672 436.018 72.7984 435.883 71.0333H442.651C442.651 71.0333 420.861 56.8226 419.231 29.8882H416.933C416.933 29.8882 419.231 55.9438 390.81 68.735C390.81 68.735 382.082 72.19 396.496 70.1546C396.496 70.1546 387.768 83.1486 406.65 70.763C406.65 70.763 405.231 82.5402 389.796 88.226C374.368 93.9118 398.321 89.8483 398.321 89.8483C398.321 89.8483 393.649 99.3948 379.033 104.667C379.033 104.667 367.255 110.15 383.907 107.507C383.907 107.507 391.215 104.87 386.746 110.346C386.746 110.346 378.627 119.682 396.083 109.129C396.083 109.129 402.782 117.451 389.991 125.781C389.991 125.781 374.564 138.775 367.451 146.489C367.451 146.489 359.534 145.272 359.534 140.803C359.534 140.803 373.339 139.383 375.164 135.117C375.164 135.117 359.121 130.445 358.31 127.606L368.262 127.403C368.262 127.403 356.687 120.298 356.282 118.27H363.793C363.793 118.27 357.499 114.139 357.499 111.435H361.224C361.224 111.435 356.755 108.663 356.417 106.898H359.527C359.527 106.898 352.421 103.721 352.016 100.401H358.377C358.377 100.401 346.262 95.1886 346.33 81.9243H343.761C343.761 81.9243 345.451 101.821 332.39 106.493C332.39 106.493 334.282 108.183 335.777 108.115C335.777 108.115 335.439 113.26 324.067 114.342C324.067 114.342 327.86 117.248 332.119 117.248C332.119 117.248 330.632 119.547 325.014 121.379C325.014 121.379 327.65 124.151 330.294 123.948C330.294 123.948 323.662 132.203 314.461 126.72C314.461 126.72 314.664 130.716 321.363 134.028C321.363 134.028 322.175 136.326 315.88 135.177C315.88 135.177 318.111 138.7 321.837 139.511C321.837 139.511 319.944 142.215 316.421 143.236C316.421 143.236 319.058 145.467 328.672 144.994C328.672 144.994 321.363 156.433 310.262 154.54C310.262 154.54 305.373 152.58 308.925 152.174L315.527 151.664C315.527 151.664 299.589 146.083 298.523 140.653H303.239C303.239 140.653 300.498 139.233 300.243 137.611H304.404C304.404 137.611 289.885 127.508 290.193 109.031H287.857C287.857 109.031 287.143 128.83 270.499 136.747C270.499 136.747 272.227 138.677 274.255 138.069C274.255 138.069 273.571 138.625 273.09 140.938C273.09 140.938 277.807 137.588 280.601 138.121C280.601 138.121 280.046 148.832 268.163 150.154C268.163 150.154 254.658 145.587 254.05 140.615H264.911C264.911 140.615 254.05 132.496 253.644 129.446L264.002 127.516C264.002 127.516 246.847 120.208 245.12 114.214L262.38 111.878C262.38 111.878 247.966 103.248 247.155 97.6673H257.31C257.31 97.6673 244.924 85.3868 243.91 80.6098H252.946C252.946 80.6098 246.855 76.8544 246.141 73.1965H253.149C253.149 73.1965 239.546 61.6221 238.735 58.783H245.029C245.029 58.783 238.33 53.5027 237.721 50.6636H245.337C245.337 50.6636 233.665 45.2857 233.357 41.2223H240.868C240.868 41.2223 229.902 32.4945 229.399 13.1012H226.56C226.56 13.1012 228.588 32.795 212.65 43.4531C212.65 43.4531 218.538 45.1806 222.091 42.9423C222.091 42.9423 214.986 52.7892 209.3 57.0554C209.3 57.0554 213.769 58.8806 218.433 57.7689C218.433 57.7689 207.67 67.5182 203.914 68.735C203.914 68.735 211.831 70.2597 215.692 69.3434C215.692 69.3434 205.74 88.9395 197.215 91.681C197.215 91.681 204.726 94.4225 210.516 91.681C210.516 91.681 204.733 102.947 199.656 105.689C199.656 105.689 200.061 108.123 202.698 107.311C202.698 107.311 200.564 118.277 185.032 125.586C185.032 125.586 189.193 128.327 198.634 127.816C198.634 127.816 193.256 141.013 185.032 145.783C185.032 145.783 176.807 145.677 175.493 141.013H185.242C185.242 141.013 164.835 135.027 163.618 129.236C163.618 129.236 168.087 133.096 173.059 133.299C173.059 133.299 167.884 129.033 167.681 127.005C167.681 127.005 171.031 129.641 174.178 129.844C174.178 129.844 172.556 127.306 172.556 125.886H180.405C180.405 125.886 172.586 124.264 171.677 120.809H175.943C175.943 120.809 163.963 116.647 162.844 111.164L166.299 109.843C166.299 109.843 163.047 108.626 162.95 107.304H168.23C168.23 107.304 163.866 104.562 163.257 101.821H169.754C169.754 101.821 164.271 100.904 163.866 98.4709H172.188C172.188 98.4709 163.663 95.0159 162.649 91.7711H167.321C167.321 91.7711 164.579 90.7046 164.121 89.3376H167.268C167.268 89.3376 158.082 84.5681 157.474 70.6578H155.341C155.341 70.6578 156.152 86.5961 145.9 88.0156C145.9 88.0156 146.102 89.5404 148.844 89.638C148.844 89.638 146.102 91.9739 142.55 92.5823C142.55 92.5823 143.669 93.5963 146.005 93.7015C146.005 93.7015 146.208 95.7294 142.655 97.2541C142.655 97.2541 145.494 98.4709 147.83 97.7649C147.83 97.7649 154.53 101.723 150.571 105.381C150.571 105.381 146.613 109.039 144.886 110.053C144.886 110.053 150.601 110.699 147.222 113.132C147.222 113.132 141.806 116.52 140.319 116.723C140.319 116.723 140.319 119.021 143.504 118.953C143.504 118.953 144.382 122.206 138.223 124.774C138.223 124.774 141.476 126.059 144.923 124.234C144.923 124.234 140.589 130.393 137.277 132.285C137.277 132.285 143.639 132.488 146.546 129.649C146.546 129.649 153.381 130.122 149.655 132.759C149.655 132.759 147.83 134.922 145.862 135.327C145.862 135.327 147.417 136.814 149.79 135.936C149.79 135.936 147.086 141.554 144.375 142.5C144.375 142.5 146.538 143.176 148.371 143.176C148.371 143.176 146.208 146.969 143.969 148.321C143.969 148.321 145.456 150.079 149.79 148.254C149.79 148.254 150.263 155.765 136.526 156.035C136.526 156.035 137.472 158.739 140.049 158.469C140.049 158.469 139.17 167.061 130.577 159.55C130.577 159.55 119.611 148.246 119.408 145.272H129.834C129.834 145.272 119.273 139.113 118.665 136.206H124.418C124.418 136.206 114.436 127.306 114.331 124.361C114.331 124.361 120.73 125.886 121.639 125.984C121.639 125.984 110.876 116.032 110.876 100.807H108.337C108.337 100.807 108.54 114.206 99.7071 122.731C99.7071 122.731 101.329 123.85 103.665 123.648C103.665 123.648 98.4903 128.32 95.3432 129.837C95.3432 129.837 97.882 131.459 100.826 130.851C100.826 130.851 101.029 134.201 96.56 137.04L100.924 137.348C100.924 137.348 98.2875 143.439 90.9043 146.549C90.9043 146.549 93.3378 148.509 95.4409 148.779C95.4409 148.779 92.1886 152.437 90.1607 153.722C90.1607 153.722 92.5942 155.209 96.3197 154.398C96.3197 154.398 95.6437 160.557 88.4031 164.147C88.4031 164.147 80.5541 164.62 79.5402 158.123H87.8623C87.8623 158.123 78.9318 152.708 78.8642 149.26H86.7131C86.7131 149.26 73.8544 141.006 73.1784 137.753H84.9556C84.9556 137.753 75.2063 128.958 74.6655 125.3H82.2441C82.2441 125.3 71.9541 115.829 71.4133 111.225H78.3159C78.3159 111.225 74.658 109.332 73.7116 105.539H78.0455C78.0455 105.539 66.5387 97.0138 66.8091 94.3023C66.8091 94.3023 70.8725 96.7359 72.3597 95.7895C72.3597 95.7895 65.9979 89.4277 65.8627 87.9406H73.0357C73.0357 87.9406 64.9163 83.3363 64.5107 81.038H69.2426C69.2426 81.038 59.9065 70.7479 59.9065 60.0598H57.3377C57.3377 60.0598 59.9065 73.5946 47.8664 81.8491C47.8664 81.8491 49.7591 84.2827 53.417 82.9307C53.417 82.9307 46.3792 91.5909 44.7568 92.9504C44.7568 92.9504 47.1904 93.4912 49.7667 92.8152C49.7667 92.8152 43.6753 99.853 40.2953 101.746C40.2953 101.746 43.818 103.368 48.4147 102.692C48.4147 102.692 43.6753 115.821 34.7447 120.02C34.7447 120.02 42.4585 121.372 45.4403 119.209C45.4403 119.209 38.2674 130.58 36.7802 131.797C36.7802 131.797 37.0506 132.068 38.5378 132.068C38.5378 132.068 37.4562 140.187 26.0846 146.008C26.0846 146.008 31.5 149.531 35.5559 148.171C35.5559 148.171 32.9872 155.344 29.8701 157.237C29.8701 157.237 27.1661 157.642 26.3474 154.668C26.3474 154.668 9.42523 147.901 7.80286 138.287C7.80286 138.287 8.74924 136.123 12.0015 136.123C12.0015 136.123 9.02715 133.419 8.61404 130.978C8.61404 130.978 18.0854 128.274 22.96 137.07C22.96 137.07 26.4826 133.682 30.809 133.682C30.809 133.682 8.74924 123.663 5.90258 107.965C5.90258 107.965 12.3996 101.873 18.8966 101.873C18.8966 101.873 -0.594407 99.0342 -1 75.3446L-0.466722 238.348Z" fill="#1D1D1B"/>
</g>
<defs>
<clipPath id="clip0_9_39">
<rect width="826" height="233" fill="white"/>
</clipPath>
</defs>
</svg>
